<?xml version="1.0" encoding="utf-8"?>
<!-- Generator: Adobe Illustrator 26.1.0, SVG Export Plug-In . SVG Version: 6.00 Build 0)  -->
<svg version="1.1" id="a" xmlns="http://www.w3.org/2000/svg" xmlns:xlink="http://www.w3.org/1999/xlink" x="0px" y="0px"
	 viewBox="0 0 230 47.4" style="enable-background:new 0 0 230 47.4;" xml:space="preserve">
<style type="text/css">
	.st0{fill:#FFFFFF;}
	.st1{font-family:'HelveticaNeue-Medium';}
	.st2{font-size:9px;}
</style>
<g>
	<path class="st0" d="M50.9,26.9c0,3.6-1,6.4-3,8.6c-2,2.1-4.9,3.1-8.5,3.1c-3.7,0-6.5-1.1-8.6-3.1c-2-2.1-3-5-3-8.6v-0.6l0,0v-5.8
		c0-4-1.1-7.1-3.3-9.5S19.1,7.6,15,7.6S7.8,8.8,5.5,11c-2.2,2.3-3.3,5.5-3.3,9.5v18.7h1.3V25.4h23.1V27c0,4,1.1,7.1,3.3,9.5
		c2.2,2.3,5.4,3.4,9.5,3.4s7.2-1.2,9.5-3.4c2.2-2.3,3.3-5.5,3.3-9.5V8.2h-1.3V26.9L50.9,26.9L50.9,26.9z M3.4,24.2v-3.6
		c0-3.6,1-6.5,3-8.6s4.9-3.1,8.5-3.1c3.7,0,6.5,1.1,8.6,3.1c2,2.1,3,5,3,8.6v3.2l0,0v0.5L3.4,24.2C3.4,24.3,3.4,24.2,3.4,24.2z"/>
	<g>
		<path class="st0" d="M106.8,23.2c1.8-1.6,2.8-3.9,2.8-6.4c0-4.8-3.8-8.6-8.6-8.6H85.9v17.3h3.4V11.6h11.8c2.8,0,5.2,2.3,5.2,5.2
			S104,22,101.1,22h-6.6v3.4h8c2.8,0,5.2,2.3,5.2,5.2s-2.3,5.2-5.2,5.2H85.9v3.4h16.6c4.8,0,8.6-3.8,8.6-8.6
			C111,27.4,109.4,24.7,106.8,23.2z"/>
		<path class="st0" d="M164,8.2v18c0,3.2-0.9,5.8-2.7,7.6c-1.9,1.9-4.4,2.7-7.8,2.7c-3.4,0-6-0.9-7.8-2.7c-1.9-1.9-2.7-4.4-2.7-7.6
			v-5.4c0-4.2-1.2-7.3-3.6-9.7c-2.4-2.4-5.9-3.6-10.4-3.6c-4.5,0-7.9,1.2-10.3,3.6s-3.6,5.8-3.6,9.9v18.1h3.5V21.2
			c0-3.2,0.9-5.8,2.7-7.6c1.9-1.9,4.4-2.7,7.8-2.7c3.4,0,6,0.9,7.8,2.7c1.9,1.9,2.7,4.4,2.7,7.6v2.5h-15.8v3.4h15.8
			c0.1,3.9,1.3,6.8,3.6,9.2c2.4,2.4,5.9,3.6,10.4,3.6s7.9-1.2,10.3-3.6c2.4-2.4,3.6-5.8,3.6-9.9V8.2H164z"/>
		<polygon class="st0" points="57.2,39.4 58.6,39.4 58.6,25.4 80.8,25.4 80.8,24.2 58.6,24.2 58.6,9.3 83.1,9.3 83.1,8.1 57.2,8.1 
					"/>
		<rect x="179.8" y="0.6" class="st0" width="0.9" height="46.2"/>
		<g>
			<path class="st0" d="M200.9,14.2c0-2.2,0.6-4,2.1-5.3c1.4-1.2,3-1.4,4.7-0.8c0.1,0,0.1,0,0.2,0.1c1,0.6,1.9,0.5,2.9,0
				c2.3-1.1,4.6-0.3,5.8,1.1c0.3,0.3,0.3,0.6-0.1,0.9c-2.6,2-2.3,5.8,0.6,7.4c0.4,0.2,0.4,0.3,0.3,0.7c-0.6,1.7-1.5,3.1-2.7,4.3
				c-0.8,0.8-1.8,1-2.8,0.6c-0.7-0.3-1.5-0.6-2.2-0.6s-1.3,0.2-1.9,0.4c-1.8,0.7-2.6,0.5-3.8-1C202.1,19.7,201,17.2,200.9,14.2z"/>
			<path class="st0" d="M209.3,6.9c0.1-2,1.8-3.9,3.7-4.2c0.3,0,0.4,0,0.4,0.3c0,2.3-1.8,4.2-3.4,4.5C209.5,7.6,209.3,7.4,209.3,6.9
				z"/>
		</g>
		<text transform="matrix(1 0 0 1 192.1861 35.0352)" class="st0 st1 st2">Premium</text>
		<text transform="matrix(1 0 0 1 194.1861 45.0352)" class="st0 st1 st2">Reseller</text>
	</g>
</g>
</svg>
