<?xml version="1.0" encoding="utf-8"?>
<!-- Generator: Adobe Illustrator 25.0.1, SVG Export Plug-In . SVG Version: 6.00 Build 0)  -->
<svg version="1.1" id="Capa_1" xmlns="http://www.w3.org/2000/svg" xmlns:xlink="http://www.w3.org/1999/xlink" x="0px" y="0px"
	 viewBox="0 0 477.9 137.9" style="enable-background:new 0 0 477.9 137.9;" xml:space="preserve">
<style type="text/css">
	.st0{fill:#D32B1C;}
</style>
<g id="XMLID_675_">
	<g id="XMLID_676_">
		<rect id="XMLID_696_" x="246.3" y="53.2" width="52.3" height="32.4"/>
		<rect id="XMLID_695_" x="117.9" y="3" width="44" height="132.2"/>
		<polygon id="XMLID_694_" points="216.8,69.2 276.8,3 223.9,3 161.8,69.2 161.8,69.2 161.8,69.2 161.8,69.2 161.8,69.2 
			223.2,135.2 276.3,135.2 		"/>
		<g id="XMLID_677_">
			<g id="XMLID_691_">
				<path id="XMLID_692_" class="st0" d="M360.2,135.5h-41.9V44.8h-21.7v-17c3,0,6.3-0.5,9.3-1.4c3-0.8,5.9-2.6,8.3-4.5
					c2.6-2,4.5-4.5,6.3-7.6c1.6-3.1,2.7-6.7,3.1-11h36.6V135.5L360.2,135.5z"/>
			</g>
		</g>
	</g>
</g>
</svg>
