<?xml version="1.0" encoding="utf-8"?>
<!-- Generator: Adobe Illustrator 24.2.1, SVG Export Plug-In . SVG Version: 6.00 Build 0)  -->
<svg version="1.1" id="Capa_1" xmlns="http://www.w3.org/2000/svg" xmlns:xlink="http://www.w3.org/1999/xlink" x="0px" y="0px"
	 viewBox="0 0 858 152" style="enable-background:new 0 0 858 152;" xml:space="preserve">
<style type="text/css">
	.st0{fill:#D70929;}
	.st1{fill:#1D1D1B;}
</style>
<g>
	<g>
		<polyline class="st0" points="0.6,2.2 0.6,148.2 82.4,148.2 82.4,67.3 0.6,2.2 		"/>
		<polyline class="st0" points="289.2,2.2 289.2,148.2 207.3,148.2 207.3,67.3 289.2,2.2 		"/>
		<polyline class="st0" points="103.9,84.4 103.9,148.4 185.8,148.4 185.8,84.4 145.1,116.7 103.9,84.4 		"/>
	</g>
	<g>
		<path class="st1" d="M306.4,107.4v-4H317c1.1,0.2,2.5,0,3.4-0.6c0.8-0.4,1.3-1.3,1.3-2.3c0-1.1-0.6-2.1-1.5-2.5
			c-0.8-0.2-1.7-0.4-2.7-0.4h-4.4c-2.1,0.2-4-0.4-5.7-1.5c-0.8-0.6-1.3-1.5-1.7-2.3c-0.4-1-0.6-1.9-0.6-3c0-1.7,0.6-3.2,1.5-4.6
			c1.1-1.3,2.7-2.3,4.6-2.3c0.8,0,1.7-0.2,3-0.2H326V88h-10.5c-1.1,0-2.1,0-3.2,0.2c-1,0.2-1.5,1.1-1.5,2.5c-0.2,1,0.4,1.9,1.3,2.3
			c1,0.4,1.9,0.4,3,0.4h3.8c1.5,0,2.9,0.2,4.4,0.6c1.5,0.4,2.9,1.5,3.4,3c0.6,1.1,0.8,2.5,0.8,3.6c0,1.3-0.4,2.7-1,3.8
			c-1,1.5-2.5,2.7-4.2,2.9c-1.3,0.2-2.7,0.2-4,0.2H306.4"/>
		<path class="st1" d="M341.7,103.8V90.3h4.8v17.1h-9.3c-1,0-2.1,0-3-0.2c-0.8-0.2-1.3-0.6-1.9-1.1c-1.3-1.3-1.9-3.2-1.7-5.3V90.3
			h4.6v11c0,0.6,0.2,1.3,0.6,1.7c0.4,0.4,1,0.8,1.7,0.6L341.7,103.8"/>
		<path class="st1" d="M377.5,103.4v4.2h-8.2c-1.1,0-2.5-0.2-3.6-0.4c-2.7-0.4-5.1-2.3-6.1-4.8c-1-2.1-1.3-4.4-1.1-6.7
			c0-2.7,0.6-5.3,1.9-7.6c0.8-1.3,2.1-2.5,3.6-3c1.9-0.8,3.8-1,5.7-1h7.8v4.2h-7.4c-1.9-0.2-3.6,0.6-4.9,1.7c-1,1.5-1.5,3.4-1.3,5.3
			c0,3.4,0.8,5.7,2.1,6.8c1.3,1,2.9,1.3,4.4,1.1H377.5"/>
		<path class="st1" d="M392.5,96.9c0.2-0.8-0.2-1.7-0.8-2.3c-1-0.6-1.9-0.8-2.9-0.6h-8v-3.8h8c1.5,0,2.5,0,2.9,0
			c0.6,0,1.1,0.2,1.7,0.4c2.7,1,3.8,3.2,3.8,7v9.7h-10.1c-1.1,0-2.5,0-3.6-0.2c-0.6,0-1.3-0.4-1.7-0.8c-1.3-1-2.3-2.7-2.1-4.2
			c0-1.1,0.2-2.1,0.8-3s1.3-1.5,2.3-1.9c1.3-0.4,2.7-0.6,4-0.4H392.5z M392.5,100.7h-6.3c-0.4,0-1,0.2-1.3,0.4
			c-0.4,0.2-0.6,0.8-0.6,1.1c0,0.4,0.2,1,0.6,1.1c0.6,0.2,1.3,0.4,1.9,0.4h5.3L392.5,100.7"/>
		<path class="st1" d="M416.3,90.3v3.8h-8.4c-0.6,0-1.3,0-1.9,0.2c-0.6,0.2-1,0.8-0.8,1.3c0,0.6,0.4,1.1,0.8,1.3
			c0.8,0.2,1.5,0.4,2.3,0.2h2.9c1.5,0,3,0.4,4.2,1.1c1.1,1,1.9,2.3,1.7,3.8c0,1.1-0.4,2.5-1,3.4c-0.4,0.8-1.1,1.3-1.9,1.5
			c-1.1,0.4-2.5,0.4-3.6,0.4h-9.7v-3.8h8.4c1,0,1.7,0,2.1,0c0.8,0,1.1-0.6,1.1-1.3V102c0-0.6-0.2-1.1-0.8-1.5
			c-0.6-0.2-1.3-0.2-2.1-0.2h-2.9c-1,0-1.7,0-2.5-0.2c-0.6-0.2-1.1-0.4-1.7-0.8c-0.6-0.6-1.1-1.1-1.5-1.9c-0.4-0.8-0.6-1.7-0.6-2.5
			c0-1.5,0.6-3,1.9-4c1.1-0.8,2.5-1,3.8-1L416.3,90.3"/>
		<path class="st1" d="M432.2,96.9c0.2-0.8-0.2-1.7-0.8-2.3c-1-0.6-1.9-0.8-2.9-0.6h-8v-3.8h8.2c1.5,0,2.5,0,2.9,0
			c0.6,0,1.1,0.2,1.7,0.4c2.7,1,3.8,3.2,3.8,7v9.7h-10.1c-1.1,0-2.5,0-3.6-0.2c-0.6,0-1.3-0.4-1.7-0.8c-1.3-1-2.3-2.5-2.1-4.2
			c0-1.1,0.2-2.1,0.8-3s1.3-1.5,2.3-1.9c1.3-0.4,2.7-0.6,4-0.4H432.2z M432.2,100.7H426c-0.4,0-1,0.2-1.3,0.4
			c-0.4,0.4-0.6,0.8-0.4,1.1c0,0.4,0.2,1,0.6,1.1c0.6,0.2,1.3,0.4,1.9,0.4h5.3L432.2,100.7"/>
		<path class="st1" d="M467.6,84v4.2h-6.5c-1.3,0-2.5,0-3.8,0.4c-0.8,0.2-1.3,0.8-1.9,1.3c-0.4,0.4-0.6,1-0.8,1.3
			c-0.2,0.8-0.2,1.5-0.4,2.5h13.1v4.2h-13.1c0,1.5,0.6,3.2,1.7,4.4c1.5,1,3.4,1.3,5.1,1.1h6.3v4.2h-6.5c-1.5,0-3,0-4.6-0.4
			c-1.9-0.2-3.8-1.3-4.9-2.9c-1.9-2.5-2.9-5.7-2.7-8.7c-0.2-3.6,1.1-7,3.8-9.5c0.8-0.8,1.7-1.3,2.7-1.5c1.3-0.4,2.7-0.6,4-0.4
			L467.6,84"/>
		<path class="st1" d="M471.2,90.3h9.1c1,0,2.1,0,3,0.4c0.8,0.2,1.3,0.6,1.9,1.1c1.3,1.3,2.1,3.2,1.9,5.3v10.5h-4.8v-11
			c0-0.8-0.2-1.3-0.6-1.9c-0.6-0.4-1.1-0.6-1.9-0.6h-4v13.3h-4.8V90.3"/>
		<path class="st0" d="M505.4,116.7v18.2h-11V82.5h25.9c3.4-0.2,6.8,0.2,10.1,1c3.4,1.3,6.5,3.8,8,7.2c1.5,2.7,2.3,5.7,2.3,8.7
			c0,2.7-0.4,5.1-1.5,7.6c-1,2.3-2.3,4.2-4,5.9c-1.3,1.3-3,2.3-4.9,2.9c-2.3,0.6-4.8,1-7.2,0.8L505.4,116.7z M505.4,107.4h15
			c1.9,0.2,4-0.2,5.7-1.3c1.9-1.7,2.7-4.4,2.5-6.8c0-3.6-1.3-5.9-3.6-6.8c-1.3-0.4-2.9-0.6-4.2-0.6h-15.2L505.4,107.4"/>
		<path class="st0" d="M571.8,111.7c0.2-1.9-0.4-3.8-1.5-5.3c-1.9-1.1-4.2-1.5-6.3-1.3h-17.5v-8.4H564c3,0,5.3,0,6.5,0.2
			c1.1,0.2,2.5,0.4,3.6,0.8c5.7,2.1,8.6,7.4,8.2,15.6v21.7h-21.9c-2.7,0-5.5,0-8.2-0.4c-1.3-0.2-2.9-0.8-4-1.5
			c-3-2.1-4.9-5.7-4.6-9.5c0-2.5,0.6-4.8,1.9-6.8c1.1-1.9,2.9-3.4,4.8-4.2c2.9-0.8,5.9-1.1,8.9-1L571.8,111.7z M571.8,119.9h-13.7
			c-1,0-2.1,0.4-2.9,1c-0.8,0.6-1.1,1.5-1.1,2.5c0,1,0.4,2.1,1.3,2.5c1.3,0.6,2.9,1,4.4,0.8h12V119.9"/>
		<path class="st0" d="M591.5,96.7h18.2c2.7,0,5.3,0.2,8,0.8c1.9,0.6,3.6,1.3,5.1,2.7c4.6,3.6,6.8,9.1,6.8,16.5
			c0.2,4.9-1.5,9.9-4.9,13.7c-1.5,1.7-3.6,3-5.7,3.8c-2.5,0.8-5.1,1.1-7.8,1.1h-9.1v14.4h-10.5L591.5,96.7L591.5,96.7z M602,105.1
			v21.7h6.3c2.7,0.2,5.3-0.6,7.4-2.1c2.3-2.3,3.4-5.5,3.2-8.9c0.2-2.9-0.8-5.7-2.7-7.8c-1.9-1.9-4.6-2.9-7.4-2.7L602,105.1"/>
		<path class="st0" d="M667.7,111.7v8.4h-21.9c0,2.1,1,4,2.5,5.1c2.1,1.1,4.4,1.7,6.8,1.5h12.7v8.4h-13.9c-2.5,0-4.9-0.2-7.4-0.8
			c-1.9-0.6-3.8-1.5-5.3-2.7c-4.6-3.6-6.8-8.9-6.8-16c-0.2-4.4,1.1-8.6,3.6-12.2c1.5-2.3,3.6-4,5.9-4.9c2.9-1.1,6.1-1.5,9.1-1.5
			h14.6v8.4h-13.9c-2.1-0.2-4.2,0.4-5.9,1.3c-1.3,1.3-2.1,3.2-2.1,5.1L667.7,111.7"/>
		<polyline class="st0" points="686.4,134.9 675.9,134.9 675.9,82.7 686.4,82.7 686.4,134.9 		"/>
		<path class="st0" d="M727.1,111.7v8.4h-21.9c0,2.1,1,4,2.5,5.1c2.1,1.1,4.4,1.7,6.8,1.5h12.7v8.4h-13.9c-2.5,0-4.9-0.2-7.4-0.8
			c-1.9-0.6-3.8-1.5-5.3-2.7c-4.6-3.6-6.8-8.9-6.8-16c-0.2-4.4,1.1-8.6,3.6-12.2c1.5-2.3,3.6-4,5.9-4.9c2.9-1.1,6.1-1.5,9.1-1.5
			h14.6v8.4h-13.9c-2.1-0.2-4.2,0.4-5.9,1.3c-1.3,1.3-2.1,3.2-2.1,5.1L727.1,111.7"/>
		<path class="st0" d="M735.2,96.7h15.2c2.5,0,4.9,0.2,7.4,0.8c1.7,0.4,3,1.1,4.4,2.3c1.1,1.1,1.9,2.5,2.5,4
			c0.6,2.3,0.8,4.6,0.8,6.8v3.6h-10.1v-2.1c0.2-1.9-0.4-3.8-1.5-5.5c-1.5-1.1-3.4-1.7-5.3-1.5h-2.9v30h-10.5L735.2,96.7"/>
		<path class="st0" d="M771.2,96.7h10.5v38.2h-10.5V96.7z M787.1,82.1l-8.2,10.3h-6.7l6.1-10.3H787.1"/>
		<path class="st0" d="M817.5,111.7c0.2-1.9-0.4-3.8-1.7-5.3c-1.9-1.1-4.2-1.5-6.3-1.3h-17.5v-8.4h17.5c3,0,5.3,0,6.5,0.2
			c1.1,0.2,2.5,0.4,3.6,0.8c5.7,2.1,8.4,7.4,8.2,15.6v21.7h-21.9c-2.7,0-5.5,0-8.2-0.4c-1.3-0.2-2.9-0.8-4-1.5
			c-3-2.1-4.8-5.7-4.6-9.5c0-2.5,0.6-4.8,1.9-6.8c1.1-1.9,2.9-3.4,4.8-4.2c2.9-0.8,5.9-1.1,8.9-1L817.5,111.7z M817.5,119.9h-13.7
			c-1,0-2.1,0.2-2.9,1c-0.8,0.6-1.1,1.5-1,2.5c0,1,0.4,2.1,1.3,2.5c1.3,0.6,2.9,1,4.4,0.8h12L817.5,119.9"/>
		<path class="st1" d="M839,21.3V7h6.1c1.1,0,2.3,0,3.2,0.4c0.8,0.2,1.3,0.8,1.7,1.3c0.4,0.8,0.6,1.5,0.6,2.3c0,1-0.4,1.9-1,2.7
			c-0.8,0.8-1.7,1.1-2.9,1.3c0.6,0.4,1.1,0.8,1.5,1.1c0.6,0.8,1.1,1.5,1.7,2.3l1.7,2.7h-3.4l-2.1-3c-0.4-0.8-1-1.3-1.5-2.1
			c-0.2-0.2-0.6-0.4-1-0.6s-1-0.2-1.5-0.2h-0.6v5.9H839V21.3L839,21.3z M841.9,12.9h2.1c1,0,1.7,0,2.7-0.2c0.4-0.2,0.6-0.4,0.8-0.6
			c0.2-0.4,0.4-0.8,0.2-1.1c0-0.4-0.2-0.8-0.4-1.1c-0.2-0.4-0.6-0.6-1.1-0.6c-0.8,0-1.3,0-2.1,0h-2.3v3.6"/>
		<path class="st1" d="M844.7,27.7c-7,0-12.7-5.7-12.7-12.7s5.7-12.7,12.7-12.7s12.7,5.7,12.7,12.7l0,0
			C857.5,22,851.7,27.7,844.7,27.7z M844.7,3.2c-6.5,0-11.8,5.3-11.6,11.8c0,6.5,5.3,11.8,11.8,11.6c6.5,0,11.8-5.3,11.6-11.8
			C856.5,8.5,851.2,3.2,844.7,3.2L844.7,3.2z"/>
		<polyline class="st1" points="324.8,9.7 340.2,57.8 356.6,9.7 375.6,9.7 375.6,71.2 363.2,71.2 363.2,25.1 347.1,71.2 333.4,71.2 
			318.2,25.1 318.2,71.2 305.8,71.2 305.8,9.7 324.8,9.7 		"/>
		<path class="st1" d="M382,71.2l25.5-61.6h15.2l25.5,61.6h-15.4L426.9,57h-23.6l-5.9,14.3H382z M415.1,24.5l-8.7,21.7h17.5
			L415.1,24.5"/>
		<path class="st1" d="M468,47.7v23.6h-13.1V9.7h30c8.7,0,14.6,1.1,18.1,3.2c2.3,1.3,4.2,3.4,5.3,5.9c1.3,2.5,1.9,5.1,1.9,8
			c0,5.9-1.5,10.5-4.6,13.5c-2.1,2.1-4.6,3.6-7.4,4.4c1.9,0.6,3.8,1.5,5.5,2.7c1.3,1.1,2.5,2.7,3.4,4.2c0.8,1.3,1.3,2.7,1.5,4.2
			c0.4,2.1,0.6,4,0.8,6.1c0.2,3.2,0.6,6.3,1.5,9.3h-14.6c-0.8-2.9-1.1-5.9-1.3-8.7c-0.2-2.9-0.8-5.7-1.9-8.4c-1-1.9-2.5-3.4-4.4-4.6
			c-3.2-1.5-6.8-2.1-10.5-1.9L468,47.7z M468,36.8h18.4c2.3,0.2,4.6-0.4,6.7-1.3c2.1-1.7,3.2-4.4,3-7.2c0-3.8-1.5-6.3-4.4-7.2
			c-1.7-0.4-3.4-0.6-5.1-0.6h-18.4L468,36.8"/>
		<path class="st1" d="M567,60.4v10.8h-21.5c-3.2,0-6.3-0.2-9.3-0.6c-7.2-1.1-13.3-5.9-16.2-12.7c-2.3-5.5-3.4-11.4-3.2-17.3
			c0-8.4,1.7-15,4.9-20.1c2.1-3.6,5.5-6.5,9.3-8.2c4.8-1.9,10.1-2.9,15.2-2.7h20.9v10.8h-19.6c-5.9,0-10.3,1.5-12.9,4.8
			c-2.3,2.7-3.4,7.4-3.4,14.1c0,9.1,1.7,15.2,5.3,18.1c2.5,1.9,6.3,3,11.6,3L567,60.4"/>
		<polyline class="st1" points="625.4,9.7 625.4,71.2 612.4,71.2 612.4,45.6 588.5,45.6 588.5,71.2 575.4,71.2 575.4,9.7 588.5,9.7 
			588.5,34.8 612.4,34.8 612.4,9.7 625.4,9.7 		"/>
		<path class="st1" d="M632,71.2l25.5-61.6h15L698,71.2h-15.4L676.7,57h-23.4l-5.9,14.3H632z M665.1,24.5l-8.7,21.7h17.5L665.1,24.5
			"/>
		<polyline class="st1" points="717,26.2 717,71.2 704.6,71.2 704.6,9.7 721.3,9.7 746.2,55.5 746.2,9.7 758.6,9.7 758.6,71.2 
			742.4,71.2 717,26.2 		"/>
		<path class="st1" d="M771,9.7h26c5.1-0.2,10.3,0.4,15.2,1.9c6.3,2.1,11.2,6.8,13.1,13.1c1.7,5.1,2.7,10.5,2.5,16
			c0,5.3-0.8,10.6-2.5,15.8c-1.3,4.6-4,8.6-8,11.2c-2.3,1.5-4.9,2.5-7.6,3c-4.2,0.6-8.6,1-12.7,0.8h-26V9.7L771,9.7z M784.1,20.5
			v39.9h13.1c5.7,0,9.7-1.3,12-3.8c1.5-1.9,2.7-4.4,3.2-6.8c0.8-3,1.3-6.1,1.1-9.3c0-3.4-0.4-6.8-1.5-10.1c-0.8-2.7-2.1-4.9-4-6.8
			c-2.3-2.1-6.1-3-11-3L784.1,20.5"/>
	</g>
</g>
</svg>
