<svg xmlns="http://www.w3.org/2000/svg" viewBox="0 0 439.08 429.77"><g data-name="Background Simple"><path d="M426.09 166.72c-48.74-83.48-180.95-53.75-207.95-94.35-13.83-20.76-29.3-44.89-51.74-57.42-21.39-12-46.19-16.21-67.81-14.63C21.38 5.97-11.35 75.05 3.48 150.91c19.8 101.19 109.5 204.56 216.06 205.28 55.74.42 109-19.58 150.7-47.71l.93-.63c41.7-28.39 92.14-77.4 54.92-141.13Z" fill="#92e3a9"/><path d="M426.09 166.72c-48.74-83.48-180.95-53.75-207.95-94.35-13.83-20.76-29.3-44.89-51.74-57.42-21.39-12-46.19-16.21-67.81-14.63C21.38 5.97-11.35 75.05 3.48 150.91c19.8 101.19 109.5 204.56 216.06 205.28 55.74.42 109-19.58 150.7-47.71l.93-.63c41.7-28.39 92.14-77.4 54.92-141.13Z" fill="#fff" opacity=".7"/></g><g fill="none" stroke="#263238" stroke-linecap="round" stroke-linejoin="round" stroke-width="1.1" stroke-dasharray="4.41"><path d="M47.73 172.79h-5.42a21.93 21.93 0 0 0-21.93 21.93v120.34a21.93 21.93 0 0 0 21.93 21.93h74.36a21.93 21.93 0 0 0 21.93-21.93h0M132.54 59.24V35.47a13.43 13.43 0 0 1 13.4-13.43h96.7a13.43 13.43 0 0 1 13.43 13.43h0"/></g><ellipse cx="219.54" cy="403.01" rx="191.52" ry="26.76" fill="#92e3a9"/><ellipse cx="219.54" cy="403.01" rx="191.52" ry="26.76" fill="#fff" opacity=".5"/><path d="M400.08 91.13v180.06a22.2 22.2 0 0 1-22.19 22.2H61.19A22.2 22.2 0 0 1 39 271.19V91.13c0-.53 0-1 .07-1.56a22.18 22.18 0 0 1 22.12-20.64h316.7a22.18 22.18 0 0 1 22.12 20.68c.05.48.07 1 .07 1.52Z" fill="#fff" stroke="#263238" stroke-linecap="round" stroke-linejoin="round" stroke-width="1.1"/><path d="M49.8 97.89h340.61v166.33a20.8 20.8 0 0 1-20.8 20.8H70.6a20.8 20.8 0 0 1-20.8-20.8V97.89Z" fill="#263238"/><path d="M390.42 97.89v166.33a20.69 20.69 0 0 1-20.57 20.8H70.37a20.69 20.69 0 0 1-20.57-20.8V97.89Z" fill="#fff" opacity=".2"/><path d="M400.01 89.61H39.07a22.18 22.18 0 0 1 22.12-20.64h316.7a22.18 22.18 0 0 1 22.12 20.64Z" fill="#92e3a9" stroke="#263238" stroke-miterlimit="10" stroke-width="1.1"/><path d="M83.42 79.25a3.93 3.93 0 1 1-3.93-3.93 3.93 3.93 0 0 1 3.93 3.93ZM100.04 79.25a3.93 3.93 0 1 1-3.93-3.93 3.93 3.93 0 0 1 3.93 3.93Z" fill="#263238"/><circle cx="112.73" cy="79.25" r="3.93" fill="#263238"/><path d="M390.41 97.89v166.33a20.8 20.8 0 0 1-20.8 20.8h-299a20.8 20.8 0 0 1-20.4-16.76v-.06a21 21 0 0 1-.38-4V97.89Z" fill="none" stroke="#263238" stroke-miterlimit="10" stroke-width="1.1"/><path d="M390.09 123.61a20.94 20.94 0 0 0-4.62-1.91l-1.87-8.35h-7.94l-1.85 8.35a20.25 20.25 0 0 0-4.64 1.91l-7.17-4.59-5.61 5.59 4.51 7.17a20.35 20.35 0 0 0-1.91 4.64l-8.35 1.85v7.94l8.35 1.87a20 20 0 0 0 1.91 4.66l-4.59 7.22 5.62 5.61 7.21-4.59a20.39 20.39 0 0 0 4.63 1.92l1.86 8.34h7.91l1.86-8.34a20.78 20.78 0 0 0 4.62-1.92l.37.24v-37.81Zm-10.44 29a10.26 10.26 0 1 1 10.26-10.25 10.25 10.25 0 0 1-10.26 10.25ZM246.99 131.66v-16.74l-17.6-3.91a45.51 45.51 0 0 0-4-9.77l2.13-3.35h-83.1l2.05 3.26a43 43 0 0 0-4 9.76l-17.61 3.92v16.78l17.61 3.93a43.65 43.65 0 0 0 4 9.84l-9.67 15.21 11.85 11.84 15.2-9.68a44.38 44.38 0 0 0 9.77 4.05l3.92 17.55h16.7l3.94-17.59a44.64 44.64 0 0 0 9.74-4.05l15.21 9.68 11.84-11.84-9.61-15.21a45.87 45.87 0 0 0 4-9.75Zm-61 13.26a21.63 21.63 0 1 1 21.63-21.63 21.62 21.62 0 0 1-21.63 21.63ZM135.92 246.61l.71-13.29-13.77-3.88a37.21 37.21 0 0 0-2.82-7.9l8.32-11.68-8.92-9.89-12.46 7a36.51 36.51 0 0 0-7.59-3.63l-2.38-14.12-13.28-.61-3.84 13.81a35 35 0 0 0-7.9 2.8l-11.67-8.31-9.91 8.91 7.06 12.47a35 35 0 0 0-3.64 7.58l-4 .66v18l2.92.82a34.6 34.6 0 0 0 2.79 7.91l-5.74 8.05.38 6.89v.06l5.93 6.57 12.48-7.05a34.66 34.66 0 0 0 7.61 3.67l2.34 13.56.11.57 13.28.7.35-1.27 3.49-12.53a35.53 35.53 0 0 0 7.94-2.8l11.65 8.3 9.9-8.9-7-12.48a34.53 34.53 0 0 0 3.59-7.57Zm-35.27-20.75a17.2 17.2 0 1 0-1.28 24.28 17.2 17.2 0 0 0 1.28-24.24ZM242.14 226.8a27.25 27.25 0 0 0 .81-6.29l9.55-5-2.64-9.69-10.78.5a27.27 27.27 0 0 0-3.87-5l3.19-10.31-8.7-5-7.28 7.94a28.8 28.8 0 0 0-6.27-.8l-5-9.55-9.68 2.63.51 10.79a27.24 27.24 0 0 0-5 3.87l-10.32-3.19-5 8.69 8 7.27a26 26 0 0 0-.79 6.27l-9.57 5 2.64 9.68 10.8-.51a25.39 25.39 0 0 0 3.85 5l-3.21 10.26 8.71 5 7.24-7.88a26.12 26.12 0 0 0 6.29.79l5 9.56 9.68-2.63-.43-9.22-.07-1.58a26.41 26.41 0 0 0 5.06-3.87l10.31 3.2 4.26-7.44.72-1.26Zm-22.87 5.88a13 13 0 1 1 9.1-15.9 13 13 0 0 1-9.1 15.9ZM352.86 243.84l2.2-13.3-13.46-5.41a35.27 35.27 0 0 0-1.93-8.3l9.69-10.79-7.84-11-13.36 5.67a35.38 35.38 0 0 0-7.22-4.48l-.78-14.49-13.3-2.2-5.45 13.4a37.15 37.15 0 0 0-8.27 1.95l-10.82-9.69-10.95 7.84 5.68 13.35a36.24 36.24 0 0 0-4.05 6.29c-.15.31-.31.62-.45.93l-14.48.8-2.21 13.28 2.18.88 11.28 4.55a35.18 35.18 0 0 0 1.93 8.26l-9.71 10.86 7.85 11 13.35-5.7a35.06 35.06 0 0 0 7.21 4.52l.75 14.42 13.29 2.2 5.44-13.3a35.13 35.13 0 0 0 8.28-1.94l10.8 9.69 11-7.85-5.68-13.36a34.78 34.78 0 0 0 4.55-7.25Zm-37.3-.6a17.41 17.41 0 1 1 4-24.29 17.41 17.41 0 0 1-4.02 24.29Z" fill="#263238"/><rect x="54.93" y="145.38" width="130.8" height="171.01" rx="13.11" fill="#92e3a9" stroke="#263238" stroke-miterlimit="10" stroke-width="1.1"/><rect x="54.93" y="145.38" width="130.8" height="171.01" rx="13.11" opacity=".2"/><path d="M197.9 171.41V316.2a13.11 13.11 0 0 1-13.11 13.12H80.21a13.11 13.11 0 0 1-13.1-13.12V171.41a13.11 13.11 0 0 1 13.1-13.11h104.58a13.11 13.11 0 0 1 13.11 13.11Z" fill="#fff" stroke="#263238" stroke-linecap="round" stroke-linejoin="round" stroke-width="1.1"/><path d="M197.9 171.41v7.75H67.11v-7.75a13.11 13.11 0 0 1 13.1-13.11h104.58a13.11 13.11 0 0 1 13.11 13.11Z" fill="#92e3a9" stroke="#263238" stroke-miterlimit="10" stroke-width="1.1"/><path fill="#92e3a9" d="M79.4 188.14h32.18v5.4H79.4zM79.4 236.53h32.18v5.4H79.4zM79.4 280.41h32.18v5.4H79.4z"/><path fill="#263238" d="M79.4 201.5h91.39v3.96H79.4zM79.4 209.08h74.91v3.86H79.4zM79.4 216.53h84.72v3.86H79.4zM79.4 223.97h84.72v3.86H79.4zM79.4 245.38h91.39v3.96H79.4zM79.4 252.96h74.91v3.86H79.4zM79.4 260.41h84.72v3.86H79.4zM79.4 293.57h91.39v3.96H79.4zM79.4 301.15h74.91v3.86H79.4zM79.4 308.6h84.72v3.86H79.4z"/><path d="M345.31 57.9v58.52a15.63 15.63 0 0 1-15.64 15.63H194.89a15.63 15.63 0 0 1-15.64-15.63V57.9a15.65 15.65 0 0 1 15.64-15.64h134.78a15.64 15.64 0 0 1 15.64 15.64Z" fill="#fff" stroke="#222221" stroke-miterlimit="10" stroke-width="1.1"/><path d="M345.31 57.9v1.34H179.25V57.9a15.65 15.65 0 0 1 15.64-15.64h134.78a15.64 15.64 0 0 1 15.64 15.64Z" fill="#92e3a9" stroke="#263238" stroke-miterlimit="10" stroke-width="1.1"/><path d="M203.65 53.55a2.4 2.4 0 1 1 0-3.39 2.41 2.41 0 0 1 0 3.39ZM214.77 53.55a2.4 2.4 0 1 1 0-3.39 2.41 2.41 0 0 1 0 3.39ZM225.89 53.55a2.4 2.4 0 1 1 0-3.39 2.41 2.41 0 0 1 0 3.39Z" fill="#263238"/><path fill="none" stroke-dasharray="4.41" stroke-linecap="round" stroke-linejoin="round" stroke-width="1.1" stroke="#263238" d="M189.84 70h54.28v46.92h-54.28z"/><path fill="#263238" d="M252.49 70h62.47v3.3h-62.47zM252.49 76.83h47.92v3.29h-47.92zM252.49 83.63h71.35v3.33h-71.35zM252.49 90.26h60.76v3.33h-60.76z"/><path d="M266.4 398.08s-29 8.31-33.05 9.75c-3.68 1.3-13.66 4.8-21.15 3.71a15.89 15.89 0 0 1-2.14-.46c-7.59-2.26-11-4.37-12-9.14s2.78-8.29 6.42-10.54 23.38-4.6 23.38-4.6l4.77 1.4Z" fill="#92e3a9"/><path d="M212.2 411.54a15.89 15.89 0 0 1-2.14-.46c-7.59-2.26-11-4.37-12-9.14s2.78-8.29 6.42-10.54 23.38-4.6 23.38-4.6l4.77 1.4c-4.32 2-20.4 3.09-23.91 5.11s-5.2 5.82-3.13 11c1.11 2.7 4.07 5.35 6.61 7.23Z" fill="#fff"/><path d="M262.04 399.26s-21.78 5.64-30.42 9.25-25.11 5.19-31-2.25-.68-13.86 5.19-15.29 17.74-3.68 24.22-2.77" fill="none" stroke="#263238" stroke-linecap="round" stroke-linejoin="round" stroke-width="1.1"/><path d="M212.63 411.15s-11.08-6.08-7.4-14.6c2.72-6.28 17.5-4.92 24.82-8.35" fill="none" stroke="#263238" stroke-linecap="round" stroke-linejoin="round" stroke-width="1.1"/><path d="M354.73 412.89c-.3 3-1.35 5.81-4.35 7.58-2 1.18-4.84 1.88-8.91 1.84-10.17-.13-29.29-7.4-29.29-7.4l-17.9-9.9 9.31-14.73 2.55-4 6.58 1.48s5.45 3.09 10.93 5.55 18.79 3 23.48 6.77 8.11 7.87 7.6 12.81Z" fill="#92e3a9"/><path d="M354.73 412.89c-.3 3-1.35 5.81-4.35 7.58a13.39 13.39 0 0 0-.5-8.94c-2-4.49-8.51-8.45-17.07-9.11s-15.11-4.66-18.54-6.45c-2.68-1.39-8.33-4.43-10.68-5.69l2.55-4 6.58 1.48s5.45 3.09 10.93 5.55 18.79 3 23.48 6.77 8.11 7.87 7.6 12.81Z" fill="#fff"/><path d="M298.25 407.79a112.86 112.86 0 0 0 41.9 14.31c3.26.39 7.05.45 9.23-2a6.82 6.82 0 0 0 1.5-5.11c-.39-4.6-4.26-8.24-8.5-10.07s-8.91-2.25-13.42-3.26a53.38 53.38 0 0 1-12.9-4.72c-3.24-1.69-6.37-3.74-9.94-4.5s-7.82.16-9.73 3.28" fill="none" stroke="#263238" stroke-linecap="round" stroke-linejoin="round" stroke-width="1.1"/><path d="M348.18 421.35a11.92 11.92 0 0 0 6.55-8.46c.65-4.33-1.82-8.69-5.29-11.35s-7.82-3.92-12.11-4.81-8.68-1.49-12.79-3.12c-6.27-2.46-12.46-7.3-19-5.57" fill="none" stroke="#263238" stroke-linecap="round" stroke-linejoin="round" stroke-width="1.1"/><path d="m318.45 252.87-30.29-11.52-.38-.15s.11-.8.2-2c.19-2.42.29-6.36-.85-7.69-1.69-2-6.47-.32-11.14-2.46s-13.3 1.69-13.3 1.69-6.24-1.15-9 3.35c-1.4 3.63-.92 9-.92 9l-.57.2c-3.61 1.35-23.25 8.74-27.4 11.71-4.59 3.25-9.67 36.62-11.3 46.42s-4.53 18.63-3.06 22 22.57 19.62 34.71 23.81 55.19 3 55.19 3 .7-.19 1.95-.59c7.28-2.34 33.11-12 46.82-34.68.02.04-13.26-43.49-30.66-62.09ZM236.61 309c-2.23 1.58-1 7.7-1 7.7l-3.79-3.34 9.52-23.41 4.06 18s-6.56-.52-8.79 1.05Zm76.16 14.87c-1.05.54 3-10.71 1.08-13.26s-7.71-2.31-7.71-2.31l.49-3.07 3.43-17.6 1.14-1.35s11.78 20.19 13.89 27.31c0 .02-12.84 10.28-12.32 10.28Z" fill="#92e3a9"/><path d="m261.26 179.86-15.64 16.6s-2.15 1.91-1.3 6.72 2.85 9 4.36 9.28a21.37 21.37 0 0 0 3.62.32s3.35 7.26 5.73 10.11c0 0 .82 11.21.38 14.32 0 0 5.62 4.91 10.91 5.53s13.46-7.48 13.46-7.48l2-9.92s4.8-7.28 5.12-9.22 2.52-1.44 3.6-2.4 3.57-5.23 4-9.27.44-8.68-4.25-7.32c-4.07-1.09-1.52-9.69-1.52-9.69l-7.15-6.3Z" fill="#fff"/><path d="M288.16 241.35a17.67 17.67 0 0 1-.81 1.81c-2.58 4.86-13.82 14.13-13.82 14.13l-3.4-10.45-1.86 10.45c-3.75-1.64-15.19-11.55-15.19-11.55s-.39-.93-.86-2.38l.57-.2s-.48-5.41.92-9c2.74-4.5 9-3.35 9-3.35s8.63-3.83 13.3-1.69 9.45.48 11.14 2.46.65 9.66.65 9.66Z" fill="#fff" opacity=".5"/><path d="m318.45 252.87-30.29-11.52-.38-.15s.11-.8.2-2l-.63 3.93-4.48 6.08a124 124 0 0 1 14 6.16 12.28 12.28 0 0 1 6.4 12.24l-5.58 47.75-2.29 27.11 6.91 7.17c7.28-2.34 33.11-12 46.82-34.68 0 .04-13.28-43.49-30.68-62.09Zm-5.68 71c-1.05.54 3-10.71 1.08-13.26s-7.71-2.31-7.71-2.31l.49-3.07 3.43-17.6 1.14-1.35s11.78 20.19 13.89 27.31c0 .02-12.84 10.28-12.32 10.28ZM247.41 310.61l-4.71-15.74s-8.45-28.81-14.24-35.91l1.52 20.26s-5 24.2-9.57 31.39-5.59 9 0 9 19.2 10.84 19.2 10.84l-1.05-9Zm-11.87 6.09-3.79-3.34 9.52-23.41 4.06 18s-6.52-.49-8.75 1.08-1.04 7.67-1.04 7.67Z" opacity=".2"/><path d="M258.03 222.89s.86 8.49 0 12.37M283.65 234.12a36.53 36.53 0 0 1 .94-8.11" fill="none" stroke="#263238" stroke-linecap="round" stroke-linejoin="round" stroke-width="1.1"/><path d="M285.92 186.19s5.14 6.45 4.87 11.33-.65 10.66-.52 16.32-9.09 17.52-13.83 18.57-8.82 1.32-11.85-1.71-6.06-7.24-10-12.64-3-17.25-3-17.25" fill="none" stroke="#263238" stroke-linecap="round" stroke-linejoin="round" stroke-width="1.1"/><path d="M273.54 205.32a26.82 26.82 0 0 0-.4 5.37 6.05 6.05 0 0 0 1.32 4.2c.57.58 1.39 1.05 1.5 1.85a2 2 0 0 1-1.06 1.75 15.55 15.55 0 0 0-1.85 1.1M265.41 220.21s.59 3.83 5.72 4.63" fill="none" stroke="#263238" stroke-linecap="round" stroke-linejoin="round" stroke-width="1.1"/><path d="M265.94 208.24c0 1.11-.48 2-1.07 2s-1.07-.89-1.07-2 .48-2 1.07-2 1.07.9 1.07 2ZM281.25 208.72c0 1.11-.48 2-1.07 2s-1.07-.9-1.07-2 .48-2 1.07-2 1.07.89 1.07 2Z" fill="#263238"/><path d="M278.16 203.87s5-5 9.19.58M267.63 203.97s-3.16-3.54-8.14 0" fill="none" stroke="#263238" stroke-linecap="round" stroke-linejoin="round" stroke-width="2.21"/><path d="M258.41 227.61s3.05 8.4 9.86 10.79 15.85-10 15.85-10l-.47-1.61s-5.93 7.7-12.52 6.39-13.1-10.25-13.1-10.25Z" fill="#263238"/><path d="M252.3 212.46s-4.06 1.43-5.14-1.73-4.78-11.49-1.54-14.27 5.84 3.67 5.84 3.67M290.26 214.18s3.77.76 4.85-2.4 4.78-11.49 1.54-14.27-5.84 3.67-5.84 3.67" fill="none" stroke="#263238" stroke-linecap="round" stroke-linejoin="round" stroke-width="1.1"/><path d="M251.46 208.24a5.62 5.62 0 0 0 3.56-2.1 8.74 8.74 0 0 0 1-3.19 37.59 37.59 0 0 0 .56-6.44 8.81 8.81 0 0 1 .23-2.51 6.6 6.6 0 0 1 1.36-2.23c1.41-1.66 3.12-3.06 4.47-4.78a8 8 0 0 0 2-6 27.45 27.45 0 0 0 22.47 5.81c7.15-1.4 14-7.67 13.17-15.55a6.37 6.37 0 0 0-5-5.48c-3.53-.88-6.7 1-9.9 2.21-5.83 2.2-11.54-1.58-17.43-2.21-5-.55-11.23.08-13.85 5.09 0 0-9 1.06-13 8.5s3.57 17.73 3.57 17.73 3-3.68 6.93 3.76Z" fill="#263238"/><path d="M286.54 184.29s-2.34 12.2 3.77 18.11c0 0 1.34-3.67 2.69-4.57a14.13 14.13 0 0 0-1.07-13.54c-4.52-7.1-5.39 0-5.39 0Z" fill="#263238"/><path d="M297.68 170.41a11.49 11.49 0 0 1-7 7.27c-8.48 3.46-16.71-.37-25.21-1.12-6.93-.62-14.58 5.64-15.07 12.76M245.17 187.44a14.81 14.81 0 0 1 9-13.08" fill="none" stroke="#fff" stroke-linecap="round" stroke-linejoin="round" stroke-width="1.1" opacity=".2"/><path d="M256.07 234.12a38.71 38.71 0 0 0 13.21 9s10.15-2.95 15.31-10" fill="none" stroke="#263238" stroke-linecap="round" stroke-linejoin="round" stroke-width="1.1"/><circle cx="293.15" cy="250.63" r="8.98" transform="rotate(-24.64 180.805 299.157)" fill="none" stroke="#263238" stroke-linecap="round" stroke-linejoin="round" stroke-width="1.1"/><circle cx="313.22" cy="250.63" r="8.98" transform="rotate(-7 -48.47 478.535)" fill="none" stroke="#263238" stroke-linecap="round" stroke-linejoin="round" stroke-width="1.1"/><path d="M258.03 230.77a7 7 0 0 0-4.33 3.35c-1.59 2.8-.63 11.61-.63 11.61s8.21 8.12 15.2 11.55l2.06-11.59 3.2 11.59s10.82-7.65 13.82-14.12c0 0 1-7.55 0-10a3.47 3.47 0 0 0-3.23-2.37M245.17 308.31s-3.21-21.5-7.48-30.27M228.46 258.96a87 87 0 0 1 6.64 11.11M312.77 275.01a62.1 62.1 0 0 1 3.53-10.49M306.14 308.31s2.31-14.74 5.07-26.88M310.06 287.61a17 17 0 0 1 8.94-6.12" fill="none" stroke="#263238" stroke-linecap="round" stroke-linejoin="round" stroke-width="1.1"/><path d="M287.79 241.2s18.63 7.45 30.66 11.68c0 0 14.8 13.91 30.67 62.12 0 0-14.54 24.46-42.2 32.3" fill="none" stroke="#263238" stroke-linecap="round" stroke-linejoin="round" stroke-width="1.1"/><path d="m311.72 324.74 13.37-11.13s7.07-5.37 14.42-1.7M311.21 286.28s11.05 16.33 13.88 27.33M235.69 317.32l-3.91-3.71s-5.8-1-12.38 3.39M231.78 313.61s4.86-16 9.65-24.19" fill="none" stroke="#263238" stroke-linecap="round" stroke-linejoin="round" stroke-width="1.1"/><path d="M252.79 243.16s-26.81 10.06-29.44 13-12.62 59.19-12.89 65.63c-.23 5.76 20.65 18.69 31 24.14" fill="none" stroke="#263238" stroke-linecap="round" stroke-linejoin="round" stroke-width="1.1"/><rect x="312.77" y="203.13" width="43.61" height="30.99" rx="6.53" stroke-width="1.1" stroke="#263238" stroke-linecap="round" stroke-linejoin="round" fill="#fff"/><path fill="none" stroke="#263238" stroke-linecap="round" stroke-linejoin="round" stroke-width="1.1" d="m326.84 212.45-8.39 5.27 7.78 6.9M342.12 225.12l7.54-6.42-8.7-5.7M330.91 229.08l6.2-19.42"/><path d="M272.84 262.17a1.77 1.77 0 1 1-1.77-1.77 1.76 1.76 0 0 1 1.77 1.77ZM303.86 356.39h-61a1.43 1.43 0 0 1-1.43-1.43 1.43 1.43 0 0 1 1.43-1.43h61a1.43 1.43 0 0 1 1.43 1.43 1.43 1.43 0 0 1-1.43 1.43Z" fill="#263238"/><path d="m306 351.61 8.17-38.4a4.08 4.08 0 0 0-4-4.93h-71.3a4.08 4.08 0 0 0-4 4.88l7.33 37.12a4.08 4.08 0 0 0 3.91 3.29l55.79 1.28a4.1 4.1 0 0 0 4.1-3.24Z" fill="#fff" stroke="#263238" stroke-linecap="round" stroke-linejoin="round" stroke-width="1.1"/><path d="M279.98 330.44a5.69 5.69 0 1 1-5.69-5.7 5.69 5.69 0 0 1 5.69 5.7Z" fill="#263238"/><path fill="none" stroke="#263238" stroke-linecap="round" stroke-linejoin="round" stroke-width="1.1" d="M291.16 311.95h8.47M250.71 311.95h32.16"/><path d="m306.14 392.38-6.5 17.06s-16.58-4.18-37.81-8.53c-22.21-4.55-45.4-10.44-57.43-31.55-1.46-2.57-2.44-5.61-1.75-8.49 1.73-7.29 11.22-9.27 17.47-10a113.92 113.92 0 0 1 11.83-.66c2 0 8.65-1.09 10.26.1a47.14 47.14 0 0 0 7.71 4.57c3.55 1.51 55.37-1.35 55.37-1.35a18.59 18.59 0 0 0 1.63-6.23c8.15-4.14 27-7.64 35-6.09 12.53 2.43 19.84 9.74 18.45 17.4s-29.07 28.2-54.23 33.77Z" fill="#263238"/><path d="M306.14 392.38s-15.77-4.18-28.65-12.88-22.94-18.8-40.89-16.71" fill="none" stroke="#fff" stroke-linecap="round" stroke-linejoin="round" stroke-width="1.1"/><path d="M274.54 377.45c8.14-2.34 14.11-7.61 20.64-12.66a139.62 139.62 0 0 1 22.09-14.52" fill="none" stroke="#fff" stroke-linecap="round" stroke-linejoin="round" stroke-width="1.1"/><path fill="none" stroke="#263238" stroke-linecap="round" stroke-linejoin="round" stroke-width="1.1" d="M271.67 209.66h2.38"/></svg>