<svg xmlns="http://www.w3.org/2000/svg" xmlns:xlink="http://www.w3.org/1999/xlink" viewBox="0 0 3710 3710"><defs><linearGradient id="L" x1="2898.24" y1="2425.63" x2="2729.37" y2="2554.84" gradientTransform="rotate(-7.5 -1567.739 16744.438)" xlink:href="#d"/><linearGradient id="g" x1="3594.08" y1="4071.3" x2="1109.56" y2="985.67" gradientUnits="userSpaceOnUse"><stop offset="0" stop-color="#dae3fe"/><stop offset="1" stop-color="#e9effd"/></linearGradient><linearGradient id="a" x1="2145.3" y1="1367.38" x2="2086.16" y2="2019.53" gradientUnits="userSpaceOnUse"><stop offset="0" stop-color="#53d8ff"/><stop offset="1" stop-color="#3840f7"/></linearGradient><linearGradient id="h" x1="2147.02" y1="1367.53" x2="2087.89" y2="2019.69" xlink:href="#a"/><linearGradient id="i" x1="2143.75" y1="1367.24" x2="2084.62" y2="2019.39" xlink:href="#a"/><linearGradient id="j" x1="2145.51" y1="1367.4" x2="2086.38" y2="2019.55" xlink:href="#a"/><linearGradient id="e" x1="2163.47" y1="903.62" x2="2072.24" y2="1521.96" gradientUnits="userSpaceOnUse"><stop offset="0" stop-color="#ff928e"/><stop offset="1" stop-color="#fe7062"/></linearGradient><linearGradient id="b" x1="3004.33" y1="160.25" x2="2593.79" y2="732.97" gradientUnits="userSpaceOnUse"><stop offset="0" stop-color="#e1473d"/><stop offset="1" stop-color="#e9605a"/></linearGradient><linearGradient id="k" x1="2947.32" y1="119.39" x2="2536.79" y2="692.11" xlink:href="#b"/><linearGradient id="l" x1="6652.84" y1="3024" x2="6049.47" y2="3680.3" gradientTransform="rotate(.54 4247.351 -527780.315)" xlink:href="#c"/><linearGradient id="d" x1="6456.99" y1="3072.73" x2="6510.59" y2="3072.73" gradientTransform="rotate(.54 4247.351 -527780.315)" gradientUnits="userSpaceOnUse"><stop offset="0" stop-color="#febbba"/><stop offset="1" stop-color="#ff928e"/></linearGradient><linearGradient id="m" x1="6700.38" y1="2281.74" x2="6186.94" y2="2977.65" gradientTransform="rotate(.54 4247.351 -527780.315)" xlink:href="#c"/><linearGradient id="n" x1="6517.48" y1="2899.53" x2="5914.09" y2="3555.86" gradientTransform="rotate(.54 4247.351 -527780.315)" xlink:href="#c"/><linearGradient id="o" x1="6263.83" y1="3069.98" x2="6310.11" y2="3069.98" xlink:href="#d"/><linearGradient id="p" x1="6608.87" y1="2214.22" x2="6095.43" y2="2910.13" gradientTransform="rotate(.54 4247.351 -527780.315)" xlink:href="#c"/><linearGradient id="q" x1="8202.3" y1="-1624.03" x2="7729.23" y2="-804.05" gradientTransform="matrix(-1 0 0 1 7569.66 0)" xlink:href="#e"/><linearGradient id="r" x1="6677.6" y1="1674.48" x2="6951.42" y2="1674.48" xlink:href="#d"/><linearGradient id="s" x1="3556.31" y1="1627.65" x2="3740.05" y2="2045.7" gradientTransform="matrix(-1 -.01 -.01 1 5472.78 36.7)" xlink:href="#d"/><linearGradient id="t" x1="6950.11" y1="1489.36" x2="7026.78" y2="1371.49" xlink:href="#d"/><linearGradient id="u" x1="8363.4" y1="-1531.1" x2="7890.33" y2="-711.12" gradientTransform="matrix(-1 0 0 1 7569.66 0)" xlink:href="#e"/><linearGradient id="v" x1="6078.42" y1="2062.3" x2="6424.93" y2="2062.3" xlink:href="#d"/><linearGradient id="w" x1="6344.51" y1="1691.87" x2="6481.51" y2="1691.87" xlink:href="#d"/><linearGradient id="x" x1="-567.92" y1="2721.16" x2="-619.12" y2="2552.3" gradientTransform="rotate(-41.4 -1004.062 -621.917)" xlink:href="#d"/><linearGradient id="y" x1="-614.11" y1="2426.95" x2="-571.28" y2="2671.21" gradientTransform="rotate(-41.4 -1004.062 -621.917)" xlink:href="#c"/><linearGradient id="z" x1="-620.26" y1="2720.37" x2="-666.32" y2="2568.45" gradientTransform="rotate(-41.4 -1004.062 -621.917)" xlink:href="#d"/><linearGradient id="A" x1="6229.97" y1="1836.4" x2="6421.18" y2="2633.09" gradientTransform="translate(-4705.66)" xlink:href="#c"/><linearGradient id="B" x1="6098.95" y1="2047.17" x2="6207.28" y2="2047.17" gradientTransform="translate(-4705.66)" xlink:href="#d"/><linearGradient id="f" x1="1067.85" y1="2574.64" x2="1090.38" y2="3126.55" gradientUnits="userSpaceOnUse"><stop offset="0" stop-color="#4f52ff"/><stop offset="1" stop-color="#4042e2"/></linearGradient><linearGradient id="C" x1="996.7" y1="3093.89" x2="1053.85" y2="3093.89" xlink:href="#d"/><linearGradient id="D" x1="1369.54" y1="2562.33" x2="1392.07" y2="3114.24" xlink:href="#f"/><linearGradient id="E" x1="680.73" y1="2836.05" x2="1133.08" y2="2836.05" xlink:href="#c"/><linearGradient id="F" x1="1267.36" y1="3098.7" x2="1335.58" y2="3098.7" xlink:href="#d"/><linearGradient id="G" x1="1091.62" y1="2647.58" x2="595.02" y2="3210.63" xlink:href="#c"/><linearGradient id="H" x1="888.42" y1="2137.36" x2="922.05" y2="2052.55" xlink:href="#d"/><linearGradient id="I" x1="1796.91" y1="1063.47" x2="765.01" y2="2635.89" xlink:href="#f"/><linearGradient id="J" x1="910.24" y1="2276.8" x2="1564.05" y2="1187.12" xlink:href="#c"/><linearGradient id="K" x1="1175.76" y1="2467.22" x2="1333.34" y2="2467.22" xlink:href="#d"/><linearGradient id="c" x1="2137.73" y1="1461.08" x2="2103.49" y2="1687.08" gradientUnits="userSpaceOnUse"><stop offset="0" stop-color="#09005d"/><stop offset="1" stop-color="#1a0f91"/></linearGradient><linearGradient id="M" x1="2779.6" y1="2323.63" x2="2932.52" y2="2520.51" gradientTransform="rotate(-7.5 -1567.739 16744.438)" xlink:href="#c"/><linearGradient id="N" x1="2877.29" y1="2398.25" x2="2708.42" y2="2527.47" gradientTransform="rotate(-7.5 -1567.739 16744.438)" xlink:href="#d"/><linearGradient id="O" x1="21227.19" y1="-22775.14" x2="20805.75" y2="-22367.69" gradientTransform="matrix(-1.39 -.07 -.07 1.39 -4690.17 -570.62)" xlink:href="#c"/><linearGradient id="P" x1="18195.04" y1="-22757.1" x2="17773.62" y2="-22349.66" gradientTransform="matrix(.65 -1.23 -1.23 -.65 8775.97 -5472.2)" xlink:href="#c"/><linearGradient id="Q" x1="1753.11" y1="4229.5" x2="2174.29" y2="2544.76" xlink:href="#d"/><linearGradient id="R" x1="2706.13" y1="2165.52" x2="2305.74" y2="2839.6" xlink:href="#c"/><linearGradient id="S" x1="1957.77" y1="3163.94" x2="2042" y2="1907.41" xlink:href="#d"/><linearGradient id="T" x1="2031.14" y1="2613.31" x2="2589.32" y2="2613.31" xlink:href="#c"/><linearGradient id="U" x1="2477.43" y1="2029.67" x2="2077.08" y2="2703.67" xlink:href="#c"/><linearGradient id="V" x1="2424.32" y1="1681.02" x2="2342.12" y2="2112.82" xlink:href="#c"/><linearGradient id="W" x1="2034.13" y1="3079" x2="2348.37" y2="2374.5" xlink:href="#f"/><linearGradient id="X" x1="2288.3" y1="2221.25" x2="2254.67" y2="2005.44" xlink:href="#d"/><linearGradient id="Y" x1="-231.93" y1="5927.43" x2="-11.78" y2="6076.96" gradientTransform="rotate(-52.83 -3024.049 1606.88)" xlink:href="#d"/><linearGradient id="Z" x1="-85.08" y1="5748.58" x2="-167.27" y2="6180.37" gradientTransform="rotate(-52.83 -3024.049 1606.88)" xlink:href="#c"/><linearGradient id="aa" x1="-218.73" y1="5908" x2="1.41" y2="6057.53" gradientTransform="rotate(-52.83 -3024.049 1606.88)" xlink:href="#d"/><linearGradient id="ab" x1="2426.41" y1="2466.29" x2="2894.45" y2="2466.29" xlink:href="#d"/><linearGradient id="ac" x1="2351.53" y1="2592.39" x2="2056.89" y2="2673.15" gradientTransform="rotate(-2.83 -1134.638 811.91)" xlink:href="#c"/><linearGradient id="ad" x1="2036.52" y1="2227.75" x2="1827.47" y2="2448.71" xlink:href="#c"/><linearGradient id="ae" x1="-9410.17" y1="3508.62" x2="-9407.08" y2="3835.84" gradientTransform="matrix(-1 0 0 1 -6719.28 0)" xlink:href="#c"/><linearGradient id="af" x1="-9489.05" y1="3143.2" x2="-9506.02" y2="3010.46" gradientTransform="matrix(-1 0 0 1 -6719.28 0)" xlink:href="#d"/><linearGradient id="ag" x1="-9852.27" y1="3512.79" x2="-9849.18" y2="3840.01" gradientTransform="matrix(-1 0 0 1 -6719.28 0)" xlink:href="#c"/><linearGradient id="ah" x1="-9860.13" y1="3188.69" x2="-9876.68" y2="3059.34" gradientTransform="matrix(-1 0 0 1 -6719.28 0)" xlink:href="#d"/><linearGradient id="ai" x1="2880.48" y1="2144.38" x2="3033.66" y2="2890.03" xlink:href="#c"/><linearGradient id="aj" x1="-9870.12" y1="2619.05" x2="-9851.6" y2="2582" gradientTransform="matrix(-1 0 0 1 -6719.28 0)" xlink:href="#f"/><linearGradient id="ak" x1="-9565.33" y1="1840.94" x2="-9883.29" y2="2785.55" gradientTransform="matrix(-1 0 0 1 -6719.28 0)" xlink:href="#f"/><linearGradient id="al" x1="-9735.08" y1="2339.13" x2="-9503.2" y2="2339.13" gradientTransform="matrix(-1 0 0 1 -6719.28 0)" xlink:href="#d"/><linearGradient id="am" x1="-9521.4" y1="2048.45" x2="-9088.36" y2="2048.45" gradientTransform="matrix(-1 0 0 1 -6719.28 0)" xlink:href="#d"/><linearGradient id="an" x1="-9677.3" y1="1805.57" x2="-9526.59" y2="1650.95" gradientTransform="matrix(-1 0 0 1 -6719.28 0)" xlink:href="#d"/><linearGradient id="ao" x1="-9458.73" y1="1553.53" x2="-9646.63" y2="1802.1" gradientTransform="matrix(-1 0 0 1 -6719.28 0)" xlink:href="#d"/><linearGradient id="ap" x1="3025.88" y1="846.6" x2="2827.64" y2="1421.04" xlink:href="#b"/><linearGradient id="aq" x1="-9733.92" y1="1750.37" x2="-9583.22" y2="1595.75" gradientTransform="matrix(-1 0 0 1 -6719.28 0)" xlink:href="#d"/><linearGradient id="ar" x1="596.52" y1="4604.4" x2="1154.65" y2="2614.11" xlink:href="#f"/><linearGradient id="as" x1="625.66" y1="4612.57" x2="1183.79" y2="2622.28" xlink:href="#f"/><linearGradient id="at" x1="2160" y1="5042.84" x2="2718.12" y2="3052.55" xlink:href="#f"/><linearGradient id="au" x1="2189.14" y1="5051.01" x2="2747.26" y2="3060.71" xlink:href="#f"/><linearGradient id="av" x1="2947.38" y1="1869.33" x2="2857.71" y2="2245.97" xlink:href="#c"/><linearGradient id="aw" x1="1284.07" y1="4797.2" x2="1842.19" y2="2806.91" xlink:href="#f"/></defs><path fill="#fff" d="M0 0h3710v3710H0z"/><path d="M2910.57 2854.44c-57.07 60.08-111.06 98.82-153.73 129.43-501.49 359.83-1094.88 254.94-1221 229.33-186.23-37.83-546.21-110.94-806.47-417-393.75-463-332.44-1192.55-27-1674.1 55.87-88.09 351-577 950.75-655.38 363-47.45 786.11 48.25 1092.53 305 643.18 538.83 597.35 1627.43 164.92 2082.72Z" fill="url(#g)"/><path d="M502.92 1402.58a8 8 0 0 1-4.66-7.16c0-10.4.13-21 .53-31.44a7.7 7.7 0 0 1 8.19-7.35c10.58.51 7 10.85 7.09 39a7.68 7.68 0 0 1-7.88 7.68 7.94 7.94 0 0 1-3.27-.73ZM508.84 1266.64c3.33-19.71 7.51-39.52 12.42-58.89a7.77 7.77 0 0 1 9.57-5.51c11.54 3.09 3.45 9.14-6.4 67.22a7.74 7.74 0 0 1-9.09 6.25 8 8 0 0 1-6.5-9.07Zm42.38-151.83c7.37-18.67 15.62-37.39 24.25-55 4.63-9.47 18.71-2.11 14.27 7a744.946 744.946 0 0 0-23.76 53.9 7.94 7.94 0 0 1-14.76-5.87ZM624 975.09a748.71 748.71 0 0 1 35.18-48.78c6.37-8.1 18.91 1.59 12.58 9.66a741.643 741.643 0 0 0-34.48 47.78c-5.71 8.58-18.99-.12-13.28-8.66Zm100.51-110.66a7.7 7.7 0 0 1-.07-11c14.29-14 29.34-27.63 44.74-40.49 7.91-6.6 18.25 5.35 10.34 12a752.652 752.652 0 0 0-43.84 39.66 8 8 0 0 1-11.17-.17Zm121.69-98.68a7.65 7.65 0 0 1 2.22-10.75c17-10.81 34.54-21.07 52.3-30.52 9.14-4.84 16.83 8.87 7.7 13.74a756.465 756.465 0 0 0-51.25 29.9 8.05 8.05 0 0 1-10.97-2.37Zm144-67.64a8 8 0 0 1-4.09-4.27 7.64 7.64 0 0 1 4.38-10.06 792.74 792.74 0 0 1 57.66-19.34 8.05 8.05 0 0 1 9.91 5.26 7.64 7.64 0 0 1-5.16 9.68c-19 5.56-38 11.94-56.51 19a8 8 0 0 1-6.2-.27Zm152.67-40.72a8 8 0 0 1-4.55-5.8 7.66 7.66 0 0 1 6.38-8.94c20-3.2 40.4-5.67 60.63-7.32a8 8 0 0 1 8.65 7.12 7.65 7.65 0 0 1-7.07 8.4c-19.82 1.62-39.81 4-59.4 7.18a7.93 7.93 0 0 1-4.65-.64Zm153.76-16.48a7.7 7.7 0 0 1 8.13-7.43c20.3.9 40.86 2.61 61.1 5.08 10.42 1.31 8.69 16.73-1.68 15.46-19.83-2.42-40-4.09-59.86-5a8 8 0 0 1-7.7-8.11Zm493.86 204.39c-44.74-39.46-55.41-39.63-48.23-49a8 8 0 0 1 11.06-1.39 800.722 800.722 0 0 1 47.6 38.82c7.85 6.96-2.55 18.51-10.43 11.57Zm-336.12-182.86a7.79 7.79 0 0 1 9.52-5.61c19.76 5 39.6 10.77 59 17.24 10 3.33 5.1 18.07-4.84 14.75-19-6.34-38.44-12-57.79-16.9a7.93 7.93 0 0 1-5.89-9.48Zm207.83 91c-51.68-29.66-62.29-27.74-57.21-38.39 3.23-6.75 11.46-3.56 10.51-3.58 18.48 8.8 36.81 18.41 54.48 28.54a7.8 7.8 0 0 1 3 10.66 7.89 7.89 0 0 1-10.78 2.73ZM1880 938.56c-16.77-20.65-27.55-28-19.49-34.86a8 8 0 0 1 11.16.89c18.19 20.65 27.46 29 19.45 35.3-2.4 1.88-8.38 2.04-11.12-1.33ZM2051.13 1519.14a7.92 7.92 0 0 1-4.59-8.14 737.73 737.73 0 0 0 3.18-30.6 7.72 7.72 0 0 1 8.53-7 8 8 0 0 1 7.23 8.53 752.77 752.77 0 0 1-3.25 31.23 7.73 7.73 0 0 1-8.81 6.63 8.29 8.29 0 0 1-2.29-.65ZM940.26 2095.5a803.95 803.95 0 0 1-58.1-31.74 7.8 7.8 0 0 1-2.77-10.72c6.28-10.31 10.05 0 67.76 28.56a7.84 7.84 0 0 1 3.67 10.47c-3.33 6.71-11.52 3.4-10.56 3.43Zm94.26 31.28c3.82-11.43 10.09-2.05 72.15 13.51a7.91 7.91 0 0 1 5.87 9.47 7.77 7.77 0 0 1-9.52 5.62 813.568 813.568 0 0 1-63.44-18.69 7.9 7.9 0 0 1-5.06-9.91ZM794 2002.33a802.42 802.42 0 0 1-49.8-43.46 7.71 7.71 0 0 1-.31-11c8.45-8.66 9.8 2.22 60 42.46a7.75 7.75 0 0 1 1.26 11 8 8 0 0 1-11.15 1Zm412.18 171.44a7.94 7.94 0 0 1-4.62-7.93 7.72 7.72 0 0 1 8.63-6.86c21.38 2.38 43.08 3.9 64.49 4.5a8 8 0 0 1 7.82 8 7.68 7.68 0 0 1-8 7.57c-21.86-.61-44-2.16-65.84-4.59a8.26 8.26 0 0 1-2.5-.69Zm170.93.34a8 8 0 0 1-4.61-6.21 7.67 7.67 0 0 1 6.85-8.59c21.26-2.29 42.69-5.51 63.68-9.57a8.06 8.06 0 0 1 9.38 6.16 7.64 7.64 0 0 1-6.07 9.13 787.3 787.3 0 0 1-65 9.77 8 8 0 0 1-4.25-.69Zm166.22-36.63a8 8 0 0 1-4.19-4.52 7.64 7.64 0 0 1 4.76-9.89 770.983 770.983 0 0 0 59.8-23.07 8.07 8.07 0 0 1 10.48 4 7.63 7.63 0 0 1-3.89 10.26 791.431 791.431 0 0 1-61 23.54 8 8 0 0 1-5.98-.32Zm153.55-71.59a8.1 8.1 0 0 1-3.42-3 7.65 7.65 0 0 1 2.44-10.71c18.11-11 36-22.94 53-35.43a8 8 0 0 1 11.07 1.68 7.65 7.65 0 0 1-1.51 10.88 768.827 768.827 0 0 1-54.14 36.17 8 8 0 0 1-7.46.41ZM1828 1961.11c-8.69-8.7 2.32-9.54 43.65-57.2 6.73-7.77 18.84 2.47 12.1 10.24a756.751 756.751 0 0 1-44.57 47.13 8 8 0 0 1-11.18-.17Zm108-128.89c-10.4-6.62.06-9.76 29.59-65.46 4.79-9 18.87-1.68 14 7.4-10.08 19-21.1 37.78-32.74 55.81a7.91 7.91 0 0 1-10.85 2.25Zm75.6-149.79a7.88 7.88 0 0 1-4.2-9.79 745.627 745.627 0 0 0 19.16-60.46 7.8 7.8 0 0 1 9.68-5.37 7.93 7.93 0 0 1 5.61 9.62 767.078 767.078 0 0 1-19.55 61.7 7.82 7.82 0 0 1-10.1 4.55c-.2-.08-.37-.16-.56-.25ZM671.25 1879.64c-17.25-21.48-26.09-30.24-17.79-36.13 8.64-6.12 12.47 4.6 30.12 26.6a7.66 7.66 0 0 1-1.22 10.92 8 8 0 0 1-11.11-1.39ZM771.46 1689.57l113.19-6A503.42 503.42 0 0 0 999 1796.05c-3.28 108.5-11.2 115.88.09 120.55l126.26 52.23a9.32 9.32 0 0 0 10.53-2.32l74.32-83.09a501.7 501.7 0 0 0 160.14 1.1l76.07 84.25a9.51 9.51 0 0 0 10.57 2.47l125.23-50.4a9 9 0 0 0 5.64-9l-8-111.64A478.45 478.45 0 0 0 1692 1689.5l113.26 7.59a9.15 9.15 0 0 0 9.12-5.59l50.78-123.5a9.17 9.17 0 0 0-2.54-10.41L1777 1482.9a480.11 480.11 0 0 0-1.66-157.78c80.7-73.52 91.26-72.84 86.52-83.87-54.46-121-50.18-130.64-62.58-130l-113.19 6a503.42 503.42 0 0 0-114.33-112.43c3.28-108.44 11.21-115.88-.09-120.55-126.34-49.74-128.8-58.85-136.79-49.92l-74.32 83.1a501.71 501.71 0 0 0-160.14-1.11c-75.1-79.81-75.35-91.26-86.65-86.72C990.72 881.64 982 876.93 982.89 889l8 111.64a478.06 478.06 0 0 0-112.14 110.7c-108.26-5-117.74-13.29-122.38-2-48.08 123.09-57.55 125.84-48.28 133.93l85.64 74.68a480.11 480.11 0 0 0 1.66 157.78c-80.42 73.26-91.28 72.78-86.52 83.87 54.47 120.95 50.19 130.62 62.59 129.97Z" fill="#91b3fa"/><path d="M1153.86 1380.51c9.88-71.26 76.91-120.31 149.42-109.33s123.46 77.88 113.58 149.14-76.9 120.3-149.42 109.33c-72.52-10.97-123.44-77.9-113.58-149.14Zm115.19 137.59h.07Zm31-223.82c-58.85-8.92-114.48 30.38-122.71 89.79-8.12 58.52 33.73 113.49 93.29 122.48s114.6-31.26 122.71-89.79-33.82-113.5-93.27-122.48Z" fill="#bdd0fb"/><path d="M1148.05 1702.32a349.94 349.94 0 0 1-51.17-29 11.72 11.72 0 0 1-4.18-14.53 12.29 12.29 0 0 1 1-1.75 11.9 11.9 0 0 1 16.47-2.84 328.47 328.47 0 0 0 59.54 32.18c157.9 65.31 337.51-3.77 406.79-154.12 1.77-3.83 3.47-7.73 5.09-11.67 65.58-159.37-13.8-341.83-175.46-408.75-161.44-66.79-346.4 6.86-411.89 165.79-38.92 94.61-15.49 161.61-20 171.31-4.83 10.49-20.69 8.1-22.53-3.34a328.35 328.35 0 0 1 26-189.63c121.34-263.31 507.51-252.54 623.26 17.12 35.63 83 36.56 174.12 2.61 256.6q-2.62 6.4-5.51 12.66c-35.18 76.36-97.5 135.52-176.8 167.44-83.62 33.66-176.11 33-260.43-1.89-4.29-1.76-8.57-3.63-12.79-5.58Z" fill="#bdd0fb"/><path d="M2133.65 1207.47a275.86 275.86 0 0 0 68.06 57.92l1.28 63.27c.13 7 6.14 4.3 75.89 28.16 6.46 2.08 5.74-4 43.76-52.43a275.94 275.94 0 0 0 89.07-7.24l45.67 43.87c5.08 4.87 7.39-1.3 73.58-33.75a5.21 5.21 0 0 0 2.78-5.37l-8.92-62.69a276.12 276.12 0 0 0 57.92-68.07c60.43-2.47 66 1.7 68.12-4.87 21.82-72 26.95-74 21.48-78l-50.61-38a276 276 0 0 0-7.23-89.08l43.87-45.66c4.86-5.07-1.3-7.39-33.76-73.58-3.07-6-6.58-1.31-68.05 6.14a275.91 275.91 0 0 0-68.07-57.92l-1.27-63.27c-.14-7-6.14-4.3-75.9-28.16-6.42-2.07-5.55 3.7-43.75 52.43a275.72 275.72 0 0 0-89.08 7.24l-45.67-43.87a5.19 5.19 0 0 0-6-.88l-67.61 34.63a5.21 5.21 0 0 0-2.77 5.37l8.92 62.69a275.7 275.7 0 0 0-57.92 68.07c-60.44 2.47-66-1.7-68.12 4.87-21.82 72-26.95 73.94-21.48 78l50.6 38a275.75 275.75 0 0 0 7.24 89.08c-41 44.48-47.91 45.47-44.75 51.64l34.63 67.6c3.13 6.05 6.93 1.27 68.09-6.14Z" fill="#91b3fa"/><path d="M2266 1022.63a79.26 79.26 0 1 1 74 84.22 79.36 79.36 0 0 1-74-84.22Zm74.73 72.43h.07Zm-51.16-70.91a55.73 55.73 0 0 0 51.92 59.13c49.16 3.17 78-55.09 45.41-92.24-32.47-36.97-94.11-16.36-97.32 33.11Z" fill="#bdd0fb"/><path d="M1947.29 1146.32c-3-10.19-5.73-20.65-8-31.09a7.87 7.87 0 0 1 6-9.35c10.7-2.3 9.18 9.64 17 35.94a7.87 7.87 0 1 1-15.09 4.5ZM1930.45 1010.34a420.17 420.17 0 0 1 7.72-64.4c2-10.24 17.48-7.1 15.45 3.08-11.27 56.39-2.47 70.09-15.64 69.52a7.87 7.87 0 0 1-7.53-8.2Zm45-153.65a7.87 7.87 0 0 1-3.63-10.52 415.14 415.14 0 0 1 32.88-55.94c6-8.53 18.87.48 12.91 9a398.78 398.78 0 0 0-31.63 53.8c-3.39 6.89-11.53 3.64-10.58 3.66Zm101.75-131.26a7.88 7.88 0 0 1-1.82-13.14 418.55 418.55 0 0 1 52.41-38.2 7.87 7.87 0 1 1 8.26 13.4 403.26 403.26 0 0 0-50.43 36.77 7.9 7.9 0 0 1-8.47 1.17Zm145.46-80a7.87 7.87 0 0 1 1-14.68 414 414 0 0 1 63.33-14.06 7.88 7.88 0 1 1 2.19 15.6 397.41 397.41 0 0 0-60.91 13.52 7.86 7.86 0 0 1-5.66-.42Zm160.82-23.16a7.89 7.89 0 0 1 8.71-7 417.72 417.72 0 0 1 63.71 12.29c10 2.71 5.88 18-4.19 15.19a399.75 399.75 0 0 0-61.28-11.82 7.89 7.89 0 0 1-7-8.7ZM2571.45 698.61c-23.79-16.39-34.27-18.08-28.94-27.28a7.81 7.81 0 0 1 10.77-2.86c9.17 5.32 18.29 11.1 27.11 17.17a7.88 7.88 0 0 1-8.94 13ZM2741.3 976.76c-3.68-28.76-9.4-37.61 1-39.76a7.87 7.87 0 0 1 9.31 6.11c2.16 10.39 3.94 21 5.29 31.66a7.87 7.87 0 1 1-15.61 2ZM2209.36 1411.77c4.11-12.42 13.42.37 69.53 9.74 10.25 1.69 7.71 17.25-2.59 15.54a416.37 416.37 0 0 1-61.94-15.33 7.87 7.87 0 0 1-5-9.95Zm161.84 22.4a7.88 7.88 0 0 1 7.21-8.49c57.18-4.7 67-16.69 70.08-3.93a7.87 7.87 0 0 1-5.8 9.5 413.42 413.42 0 0 1-63 10.13 7.88 7.88 0 0 1-8.49-7.21Zm157.59-42.89c-6.14-11.58 9.4-9.36 55.11-43.49 8.35-6.22 17.78 6.39 9.42 12.62a417.54 417.54 0 0 1-53.88 34.14 7.88 7.88 0 0 1-10.65-3.27Zm128.07-101.42c-10.21-8.28 5-12.31 33.69-61.6 5.23-9 18.86-1.09 13.62 7.92a416.33 416.33 0 0 1-36.23 52.52 7.89 7.89 0 0 1-11.08 1.16Zm72.57-153.27c15.58-55.17 7.79-68.64 20.85-67a7.87 7.87 0 0 1 6.86 8.77 415.73 415.73 0 0 1-12.56 62.56 7.87 7.87 0 0 1-15.15-4.28ZM2120.62 1376.88c-9-5.78-17.8-12-26.28-18.41a7.87 7.87 0 0 1-1.5-11c6.62-8.71 13.21 1.32 36.32 16.21a7.88 7.88 0 0 1-8.54 13.24Z" fill="#91b3fa"/><path d="M2249 1196a11.82 11.82 0 1 1 11.42-20.69 171.76 171.76 0 0 0 164.2 4.24c135.38-69.37 119.38-269.14-25.51-315.84-83.36-26.88-172.57 13.69-208.34 91.33-36 78.2 4.7 118.89-20.23 124.65a11.8 11.8 0 0 1-14.17-8.83A194.76 194.76 0 0 1 2160.8 967c32.94-102.21 143-158.86 245.56-125.8 110.34 35.58 166.64 160.32 117.16 267.7-39.9 86.61-140.26 134.84-236.93 103.66A196.68 196.68 0 0 1 2249 1196Z" fill="#bdd0fb"/><path d="M2216.74 1478.39c-.3-3.69-4.07-6.89-10.45-9.45 6.93-3.82 10.77-7.92 10.45-11.94-1-12.17-39.51-19-86.06-15.24s-83.49 16.66-82.51 28.83c.3 3.69 4.07 6.88 10.45 9.44-6.93 3.83-10.77 7.93-10.45 12 .3 3.69 4.07 6.88 10.45 9.44-6.93 3.83-10.77 7.93-10.45 11.95.3 3.69 4.07 6.88 10.45 9.44-6.93 3.83-10.77 7.93-10.45 12 .44 5.38 8.23 9.71 20.79 12.55a108.74 108.74 0 0 0 .32 13.15c1.82 22.42 27 40 60.39 40s62.22-24 62.55-46.45a113.42 113.42 0 0 0-.65-14.68c16-5.33 25.67-11.84 25.17-18.15-.3-3.69-4.07-6.89-10.45-9.45 6.93-3.82 10.77-7.92 10.45-11.94-.3-3.69-4.07-6.89-10.45-9.45 6.93-3.93 10.77-8.03 10.45-12.05Z" fill="url(#c)"/><path d="M2109.14 1552.15a201.25 201.25 0 0 1-36.92-3 1.11 1.11 0 1 1 .42-2.19c16.35 3.13 38.19 3.82 61.5 1.94 19.07-1.54 36.91-4.61 51.58-8.9a1.12 1.12 0 0 1 .63 2.15c-14.82 4.32-32.81 7.43-52 9-8.69.66-17.15 1-25.21 1Z" fill="url(#a)"/><path d="M2109.37 1530.74c-18 0-34-1.69-45.33-4.91a1.12 1.12 0 1 1 .61-2.15c16.13 4.59 42.11 6 69.49 3.81 27.08-2.18 52.34-7.68 67.57-14.7a1.12 1.12 0 1 1 .93 2c-15.45 7.12-41 12.69-68.32 14.9-8.53.72-16.93 1.05-24.95 1.05Z" fill="url(#h)"/><path d="M2109.14 1509.37c-19.39 0-36.36-2-47.78-5.75a1.12 1.12 0 0 1 .7-2.13c15.89 5.24 42.84 7 72.08 4.61 27.08-2.18 52.34-7.68 67.57-14.7a1.12 1.12 0 1 1 .93 2c-15.45 7.12-41 12.69-68.32 14.9-8.66.7-17.13 1.07-25.18 1.07Z" fill="url(#i)"/><path d="M2109.29 1488c-15.38 0-29.37-1.25-40.25-3.66a1.12 1.12 0 0 1 .48-2.19c16.36 3.64 39.91 4.58 64.62 2.59 26.84-2.17 52-7.6 67.22-14.54a1.12 1.12 0 0 1 .93 2c-15.48 7-40.88 12.55-68 14.74-8.53.69-16.95 1.06-25 1.06Z" fill="url(#j)"/><path d="M2016.93 1370.41a157.24 157.24 0 0 0-28.19-55c-27.71-34.92-72.91-106-78.48-202.88-8.09-141 117-211.59 231.07-202S2368 1005 2355.7 1136.21c-7.58 80.71-52.76 141.93-86.39 177.08a186.81 186.81 0 0 0-44.84 79.45c-10.09 36.44-34.11 81.86-91.21 84.63-73.88 3.63-104.56-65.29-116.33-106.96Z" fill="url(#e)"/><path d="m2152.13 1449.25 39.93-259.69c.82-5.36 3.46-9 5.9-8s3.73 6 2.91 11.38c0 .14-.06.32-.08.46l-45.48 257.27c-.34 1.93-1.32 3.16-2.19 2.73s-1.27-2.28-.99-4.15Z" fill="url(#b)"/><path d="m2110.69 1451.31-39.93-259.68c-.82-5.37-3.46-9-5.9-8.05s-3.73 6-2.91 11.38c0 .14.06.32.08.46l45.48 257.27c.34 1.94 1.32 3.16 2.19 2.73s1.3-2.24.99-4.11Z" fill="url(#k)"/><path d="M2191.77 1167.27a4.18 4.18 0 0 0-5.24-1.36l-22.23 10.38-7.72-22a4.69 4.69 0 0 0-2.7-2.72 5.48 5.48 0 0 0-6.83 2.1v.07l-18.29 33.34-17-47.46v-.08a5.42 5.42 0 0 0-2.57-2.89 6.66 6.66 0 0 0-8.39 1.65l-25.56 35.19a3.08 3.08 0 0 0 .9 4.44 4.28 4.28 0 0 0 5.43-.59l22.51-25.1 20.26 45.14a3.49 3.49 0 0 0 1.78 1.75 4.23 4.23 0 0 0 5.3-1.37l19.56-31.38 7.36 15.87.06.15c.06.11.12.22.19.33a4.17 4.17 0 0 0 5.23 1.36l26.39-12.33a3.13 3.13 0 0 0 1.56-4.49ZM2270.18 1279.82a5.07 5.07 0 0 1-4.07-8.09 294.21 294.21 0 0 0 18.52-28.14 5.07 5.07 0 0 1 8.78 5.07 303.11 303.11 0 0 1-19.16 29.11 5 5 0 0 1-4.07 2.05ZM2303 1223.45a5.14 5.14 0 0 1-2-.42 5.07 5.07 0 0 1-2.63-6.67c42.19-97.16 5.8-178.72 5.43-179.53a5.07 5.07 0 1 1 9.21-4.22c1.6 3.48 38.63 86.51-5.34 187.79a5.08 5.08 0 0 1-4.67 3.05Z" fill="#fff"/><path d="M1459 3070.79s-6.59 35.32-10 70.31a24.12 24.12 0 0 0 22.83 26.36c46.61 2.39 146.33 7.12 182.14 5.86a7.85 7.85 0 0 0 7-10.69 17.53 17.53 0 0 0-8.9-9.55l-164-77.3Z" fill="url(#l)"/><path d="m1454.05 3050 4.62 42.36s28.73 13.71 48.59-1.23l-11.51-47.27Z" fill="url(#d)"/><path d="M1465.41 2254.47c-2.27 11-16.9 551.32 38.55 794a8.21 8.21 0 0 1-4.91 9.52 143.21 143.21 0 0 1-47.13 9.11 14.17 14.17 0 0 1-14-10.29c-16-56.35-92.41-338.61-100.17-607.62-8.66-300.6.1-10.23.1-10.23l8.54-185.68Z" fill="url(#m)"/><path d="M1269.25 3087.44s-10.12 17.77-20.2 65.13a14.72 14.72 0 0 0 12.78 17.75c15.39 1.66 39.07 3.84 58.07 3.89a14.68 14.68 0 0 0 14.68-16.24c-1.94-17.34-8.22-45.82-28.25-68.16Z" fill="url(#n)"/><path d="m1261 3032.93 11.12 64.11s11.52 8.73 34.52 2.7l-4.94-68.91Z" fill="url(#o)"/><path d="M1236.63 2268.87c-50 284.66 3.52 704.77 22.13 787.07a12.82 12.82 0 0 0 10.25 9.83c8.64 1.51 22.87 2.82 37-1.13a11.73 11.73 0 0 0 8.54-10.72c3.24-66.37 2.44-474 48-634.64a36.62 36.62 0 0 1 14.3-20.05l86-59.92 7.49-98.12Z" fill="url(#p)"/><path d="M1542.81 1731.51c-141.55-3.69-298.14 34.33-298.14 34.33-44.55 245.84-12.44 530.2-12.44 530.2 109.33 29.78 233.41-15.35 233.41-15.35 19.2-102.75 107-391.6 107-391.6 69.25-7.92 126.43-27.34 173.61-53.28-35.4-41.83-51.77-94.79-58.8-126.06-50.25 15.07-100.98 22.9-144.64 21.76Z" fill="url(#q)"/><path d="M1963 1527c-13.75-16.93-31.43-9.15-31.43-9.15-21.67 87.8-131.59 158.12-244.15 191.93 7 31.27 23.4 84.23 58.8 126.06C1933.46 1732.87 1963 1527 1963 1527Z" fill="url(#r)"/><path d="M1959.57 1531.21c1.41 4.64-15.51 11.52-25.25-7.49-.26-9.08-5.4-48 .09-55.31 29.23-39.07 85.66-87.86 85.66-87.86 9.36 9.42 1.49 18.51 1.49 18.51l-27.42 28c5.58 10.31 12.42 19 15.55 31.48a38 38 0 0 1-4.06 28c-4.85 8.54-11.45 19.63-17.68 28.3-11.79 16.4-28.38 16.37-28.38 16.37Z" fill="url(#s)"/><path d="m1982.09 1445.31-24.93 20.74-8 20.8 21.82 24.67s7.81-41.35 13.41-50.26 2.81-13.26-2.3-15.95Z" fill="url(#t)"/><path d="m1297.66 1903.45-53-137.61s-133.1 88.59-155.94 202.31c25 2.08 70.38 9 114.67 31.91 10.3-53.7 94.27-96.61 94.27-96.61Z" fill="url(#u)"/><path d="M1412 2033.55s-149.27 82.49-198.68 10.36c-10.26-15-12.61-29.78-9.91-43.85-44.29-22.9-89.7-29.83-114.67-31.91-6.88 34.28-3.76 70.84 16.07 107.95 86.22 161.36 326.49-5.76 326.49-5.76Z" fill="url(#v)"/><path d="m1400.5 1615.21-46.29 129.84a4.68 4.68 0 0 0 2.09 5.67c12.21 6.91 56.26 27 109.9-6.34a22.1 22.1 0 0 0 10.33-15.69l15.66-112.61Z" fill="url(#w)"/><path d="M1499.67 1495.5s48.58 93.59 41.88 131.15-68 34.26-121.23 3.2L1383.87 1529Z" fill="url(#x)"/><path d="M1423.16 1580.5a3.84 3.84 0 0 0 1.73-5.6c-3.91-6.09-11.22-18.52-13.48-29.35 0 0-8.84-5.78 22.76-13s78.72-18.51 88.86-45.25c9.88-26.07-14.81-92.11-55.69-40.07a3.84 3.84 0 0 1-6.08 0c-6.54-8.68-23.78-26.73-48-16.12-22.71 9.93-25.41 26.48-25.18 34.83a3.82 3.82 0 0 1-4.56 3.87c-11.41-2.29-38.83-4.43-51.91 23.6-10.77 23.08-4 36.27 2.15 42.75a3.82 3.82 0 0 1-1.7 6.33c-7.54 2.23-17.3 8.51-16.5 26.13 1.11 24.35 28.34 22.46 36.1 21.43a3.85 3.85 0 0 1 3.4 1.24c6.57 7.41 36.2 38.91 68.56 43a3.87 3.87 0 0 0 4.11-5.07l-13.63-40.89a3.86 3.86 0 0 1 2.13-4.76Z" fill="url(#y)"/><path d="M1428.74 1586.34s-35-24.5-37.76-4.18 31.44 29.78 48.5 22.36Z" fill="url(#z)"/><path d="m1381.49 2163.92 81.31-284a8.27 8.27 0 0 1 7-6c14.74-1.71 57.43-6.54 106.72-10.71 59.37-5 128.32-9.09 169.52-5.63a8.31 8.31 0 0 1 6.79 12C1729.4 1917 1633 2109.81 1584.77 2173a8.37 8.37 0 0 1-6.71 3.29l-188.66-1.76a8.3 8.3 0 0 1-7.91-10.61Z" fill="url(#A)"/><path d="M1401.13 2095.31s-11.33-46.58-6.76-63.1 13.43-37.77 42.93-33 64.32 17.15 64.32 17.15-1.76 21.53-24.18 14.58l13.9 10.76s-2 17.24-20.93 8l12.94 14.27s-8.14 14.15-22.08 5.08-20.61 31.87-60.14 26.26Z" fill="url(#B)"/><path d="M1571.1 1948a23.87 23.87 0 1 0 23.87-23.87 23.87 23.87 0 0 0-23.87 23.87ZM1472 1963.78l-6.08-1.8 16.55-56.16a25.59 25.59 0 0 1 19.27-17.93c52.47-11 190.68-13.18 196.54-13.28l.1 6.35c-1.43 0-143.46 2.32-195.35 13.14a19.24 19.24 0 0 0-14.47 13.52Z" fill="#91b3fa"/><path d="M509.65 2758.48c-8.67 12.83-43.12 303.23-48.51 410.49a12.69 12.69 0 0 0 12.7 13.3 12.71 12.71 0 0 0 12.56-10.75l63-403.8ZM786.63 2758.48c8.67 12.83 43.12 303.23 48.51 410.49a12.68 12.68 0 0 1-12.7 13.3 12.7 12.7 0 0 1-12.55-10.75l-63-403.8Z" fill="#7d97f4"/><path d="M457.54 2735.82v3.16c-.21 22.79 19.42 41.48 44 41.89l291.25 5c24.22.41 44.41-17.09 45.59-39.52l.15-2.9c1.23-23.39-18.64-43.1-43.9-43.55l-291.38-5.23c-24.97-.48-45.5 18.03-45.71 41.15Z" fill="#7d97f4"/><path d="M1071.08 3158.42c-51.78 0-74.68-4.44-84.93-8.49a19.65 19.65 0 0 0 19.14 15.21h183.16a8.91 8.91 0 0 0 8.59-11.25c-20.88 1.68-65.23 4.53-125.96 4.53Z" fill="#91b3fa"/><path d="M1197 3153.89a8.84 8.84 0 0 0-1.5-3.11c-14-17.82-42-45.79-80.11-45.25-55.85.78-75.32 6.84-118.73.34l-10.24 33.93a19.54 19.54 0 0 0-.31 10.13c10.25 4.05 33.15 8.49 84.93 8.49 60.77 0 105.12-2.85 125.96-4.53Z" fill="url(#f)"/><path d="M1009.27 3069.29 996.7 3112s27.85 12.67 52.34 2.5l4.81-37Z" fill="url(#C)"/><path d="M1388.9 3131.5c-40.36 32.43-61 43.33-71.5 46.61a19.63 19.63 0 0 0 24.4-.18l142.78-114.73a8.87 8.87 0 0 0-.31-14.1c-15.27 14.38-48.03 44.36-95.37 82.4Z" fill="#91b3fa"/><path d="M1484.27 3049.1a8.51 8.51 0 0 0-3.12-1.48c-22-5.08-61.27-9.23-90.65 15.06-43 35.6-54.45 52.49-92.34 74.63l13.17 32.75a19.37 19.37 0 0 0 6.07 8.05c10.51-3.28 31.14-14.18 71.5-46.61 47.34-38.04 80.1-68.02 95.37-82.4Z" fill="url(#D)"/><path d="M740.41 2582.27s310 25.31 373.56 55.25-51.89 449.48-51.89 449.48-17.31 8.33-55.83-3.64c0 0 39.5-309.61 10.1-376.75l-335.62-54.9Z" fill="url(#E)"/><path d="M1267.36 3078.38c2.88 2.62 30.8 58.93 30.8 58.93s31.08-6.72 37.42-26.39l-28-50.83Z" fill="url(#F)"/><path d="M553.71 2579.68s-10.1 24.31-9.69 56.61c.57 44.67 36.48 80.92 81.1 83.14l366.44 16.71a17.59 17.59 0 0 1 16.23 13.21c8.61 33.31 50.7 135.59 256.44 339.69a16.6 16.6 0 0 0 20.52 2.24l29.29-18.5a6.75 6.75 0 0 0 2.22-9.12l-213.36-364.34a82.54 82.54 0 0 0-50.17-37.21l-312.32-79.84Z" fill="url(#G)"/><path d="M914.84 2010.54s-39.26 69.41-79.28 103l82.72 46.16s18.64-73.48 61.23-95Z" fill="url(#H)"/><path d="M547.05 2582.27s98.93 24.11 193.36 0c0 0 132.12-177.61 183.24-226 0 0 81.54 128.67 263 146.9l10.13-22.62s-144.49-66.6-189-168.94S945.49 2165.67 905 2139c-25.2-16.63-40.29-28-48.09-34.19a13 13 0 0 0-14.82-1C799.17 2130 597.1 2268.4 547.05 2582.27Z" fill="url(#I)"/><path d="M918.29 2353.81a6.35 6.35 0 0 1-5-2.48c-31.5-41.08-49-86.36-49.78-88.26a6.35 6.35 0 0 1 11.85-4.55c.17.45 17.65 45.51 48 85.08a6.35 6.35 0 0 1-5 10.21Z" fill="url(#J)"/><path d="m1175.76 2468.78 20.43-5.45 62-14.36a28.75 28.75 0 0 1 21.8 3.68l53.33 33.55-147.27-.25Z" fill="url(#K)"/><path d="M977.16 1906.47s38.15 63.41 44.77 98.46 17.25 57-22.64 69.45-77-3.31-100.24-36c0 0-36.33-50.35-32.71-73.41s110.82-58.5 110.82-58.5Z" fill="url(#L)"/><path d="m909.68 2011.22 5.16-.68s-27-40.82-9.34-50.94 89.7-35 102.21-63.34c12.06-27.35-6-58.25-27.72-64.69a2.77 2.77 0 0 0-3.33 1.75l-1.28 3.44a2.79 2.79 0 0 1-5.18.15 2.78 2.78 0 0 0-5.07-.1c-3.86 8.49-15.41 23-50 34.24-49.15 15.93-79.77 40.71-76 75.63a2.8 2.8 0 0 1-4 2.84c-4-1.77-10.11-2-17.18 5.68-12.3 13.46-2.66 42.88 30.93 63.71a2.77 2.77 0 0 1 .45 4.46c-5 4.3-12.09 13.9 10.64 22.45 23.25 8.75 35.93 5.79 40.62 3.91a2.8 2.8 0 0 0 1.72-3.15l-6-30.6a2.8 2.8 0 0 1 2.38-3.31Z" fill="url(#M)"/><path d="M911.79 2017.51S895 1976 877.28 1990.6s16.34 46.83 32 46.4Z" fill="url(#N)"/><path d="M1118.86 2515.09h.73l314.62-.32a14.06 14.06 0 1 0 0-28.11l-314.63.32a14.05 14.05 0 0 0-.69 28.09Z" fill="url(#O)"/><path d="M1556.06 2207c-.12.22-.22.43-.32.65L1423.36 2493a14.06 14.06 0 1 0 25.5 11.83l132.38-285.42a14.06 14.06 0 0 0-25.18-12.48Z" fill="url(#P)"/><path fill="#7d97f4" d="M2346.73 2801.93h33.21v359.11h-33.21z"/><path d="M2508.75 3168h-290.84a21.61 21.61 0 0 1 21.61-21.61h247.62a21.6 21.6 0 0 1 21.61 21.61Z" fill="#7d97f4"/><rect x="2186.24" y="2721.47" width="365.68" height="103.71" rx="35.71" fill="#7d97f4"/><path d="M2118.18 2562.49s-49.34 7.65-104.82 44.73a27.69 27.69 0 0 0-12.21 26.44c6.65 52.62 34 222.93 124 389.28a41.93 41.93 0 0 1 4 28.74l-15.65 72.82-29 27.21h74.75l49.8-134.71-21.29-6.73a40.27 40.27 0 0 1-28.12-37.7l-2.49-144.47c2.13-64.37-39.47-108.78-39.47-108.78l119.37-5.8Z" fill="url(#Q)"/><path d="M2055.34 3164.85c-6.8 8.91 73.27 20.66 113.72 1.18 0 0 56.08-97.57 56.08-147.81 0 0-4.45-10.24-37.38-7.92 0 0-18.83 115.53-38.71 128.47s-55.62 1.31-55.62 1.31-28.04 11.62-38.09 24.77Z" fill="url(#R)"/><path d="M2222 2721.47c-.64-1.1-128.52-15.38-128.52-15.38s4.18 38.89-8.9 92.41-200.85 285.44-200.85 285.44l19.69 62.42c-60.87 21.2-120.75 24.59-179.67 10.8l122-73.22s114.19-389.13 184.14-458.56L2158 2581Z" fill="url(#S)"/><path d="M2508.75 2495s73.69 109.6 79.73 159.59-20.18 70.3-97.49 73.65-283.7 3.3-283.7 3.3L2031.14 2581s128.37-45.8 161.74-58.75 315.87-27.25 315.87-27.25Z" fill="url(#T)"/><path d="M1895.93 3125.34s21.2 20.53 6.88 43.37c0 0-167.91 29.76-213.5 16.26 0 0 9.47-21.61 60.8-46.2l-3.78 2.91a6.13 6.13 0 0 0 4.05 11c33.82-1.93 103.83-8.13 145.55-27.34Z" fill="url(#U)"/><path d="M2189.59 1800c150.62-25.61 221.53 97.23 216.34 123a4.73 4.73 0 0 0 5.92 5.42c17.29-4.66 55.49-10.53 79.17 19.15 20.9 26.19 5.28 50.92-7.46 64.49a4.75 4.75 0 0 0 4 8c31.79-4 100.87-5 112.17 59.74 10.54 60.35-31.46 77.36-56.37 82.16a4.73 4.73 0 0 0-1.58 8.65c12.43 7.88 26.83 24.18 21 56.33-9.12 50.39-107.92 46.27-119.46 45.61a4.54 4.54 0 0 1-2.06-.62L2283 2181.78a4.75 4.75 0 0 1-2.33-3.32L2248.71 1994a4.75 4.75 0 0 1 1.26-4.11l-103.17-145.64c-37.45-5.51 41.01-43.92 42.79-44.25Z" fill="url(#V)"/><path d="M2309.49 2480.54s-85.8-81.71-128-135.82a114.81 114.81 0 0 1-19.49-103.33c19.28-65 53.55-132.25 56.68-142.72 4.79-16.06 101-15.39 101-15.39s189.32 122.87 263.7 331l-83.53 26s-49.43-82.93-98.27-135.66c0 0 84.51 111.64 87.48 157.35Z" fill="url(#W)"/><path d="M2207.05 2009c1 3.33 26.12 86.58 28.08 88.3s55.07 4.59 80.07-12.49l-62-121.28Z" fill="url(#X)"/><path d="M2106.39 1902s-12.14 47.69 21.44 111.83 71.58 64.07 92.36 43.54 46.39-55.37 40.31-117.37-136.59-98.67-154.11-38Z" fill="url(#Y)"/><path d="M2214.06 1943.35s-55.71-85.16-107.95-18.13l-.94 24.37s-61.18-7.26-50.48-63.36 63.59-91.16 131.68-66.86 107.11 49.22 111.5 98-34.43 38.1-34.43 38.1-12.66-34.36-30.66-37.93-13.33 23.22-13.33 23.22Z" fill="url(#Z)"/><path d="M2228.32 1942.21s-28.89-43.61.71-50.11 25 42.49 21.82 60.61Z" fill="url(#aa)"/><path d="m2134.69 2486.6 63-60.76 87.21 36.84s86.81 13.45 136.49 0l49.68-13.45 112.27-34.95 17.64 49.83a30 30 0 0 1-11 34.47c-9.71 6.91-21.1 14.49-28.35 17.67-14.79 6.47-364.47-4.48-364.47-4.48Z" fill="url(#ab)"/><path d="M2373.26 2515.25h-.84l-365.69-.4a16.37 16.37 0 0 1 0-32.74l365.69.4a16.37 16.37 0 0 1 .81 32.72Z" fill="url(#ac)"/><path d="M1678 2183.23h304.55a58.06 58.06 0 0 1 52.5 33.28l140.79 298.54h-378.48a35.27 35.27 0 0 1-32.81-22.31l-109.18-276.25a24.32 24.32 0 0 1 22.63-33.26Z" fill="url(#ad)"/><path d="M1892.55 2336.3c6.6 20.5 1.72 40.41-10.89 44.47s-28.19-9.27-34.79-29.77-1.73-40.42 10.89-44.48 28.24 9.27 34.79 29.78Z" fill="#7d97f4"/><path d="M2790.17 3122.71a443.44 443.44 0 0 1 5.35 46.61 20.07 20.07 0 0 1-18.09 21.19c-37.43 3.63-122.63 10.33-177 2.48a9.13 9.13 0 0 1-5-15.71c22.43-20.9 76.61-61.55 165.77-70.44Z" fill="url(#ae)"/><path d="m2808.78 3074.67-18.93 46.38a15.46 15.46 0 0 1-15.87 9.6 84.9 84.9 0 0 1-15.46-3 20.3 20.3 0 0 1-13.5-25.25l14.28-47.78Z" fill="url(#af)"/><path d="M3132.32 3159.65s-37.89 31.71-52.66 72.38c-4.06 11.19 4.52 23 16.43 23h78a18.4 18.4 0 0 0 18.18-21.51c-4.99-28.11-19.27-73.75-59.95-73.87Z" fill="url(#ag)"/><path d="M3179.27 3118.39s-7.66 33.88-13.54 56.27a7.16 7.16 0 0 1-9.36 4.88c-11.8-4.22-21.41-6.09-28.39-5.15a5.53 5.53 0 0 1-6.09-5.51l-.73-56.27Z" fill="url(#ah)"/><path d="m2977.72 2356-230.5 703.2s44.21 28.95 65.28 27.75l273.78-565.14S3134.19 2870 3111 3120l78.42 6s127.51-638.87 30.93-857.68Z" fill="url(#ai)"/><path d="M3084.8 2515.75h.28a2.23 2.23 0 0 0 1.93-2.49l-8.94-71a2.23 2.23 0 1 0-4.43.55l9 71a2.23 2.23 0 0 0 2.16 1.94Z" fill="url(#aj)"/><path d="M2934.51 1737.23s186.75 16.58 160.33 149.64c0 0 103.23 194.27 151.49 423.12a13.44 13.44 0 0 1-10.91 16l-311 53.25a16.74 16.74 0 0 1-19-12.31l-74.31-287.18-29 133.52-92-24 77.45-392.36s10.81-57.22 146.95-59.68Z" fill="url(#ak)"/><path d="M2829.49 2066.89a2.18 2.18 0 0 0 .5 0 2.33 2.33 0 0 0 1.77-2.76l-25.93-119a2.31 2.31 0 0 0-4.52 1l25.92 119a2.32 2.32 0 0 0 2.26 1.76Z" fill="#91b3fa"/><path d="M2848.26 2421.11a44.4 44.4 0 0 1 32.12-4.18l21.63 5.39a7.85 7.85 0 0 0 9.69-6.74l22.39-199.3c28 13.3 68.39 11.71 81.71 10.73l-51.53 235h-180.35Z" fill="url(#al)"/><path d="m2369.08 1988.79 5.45-18.11a35.82 35.82 0 0 1 20.94-22.92l98.6-39.65s1.48-12.65-20.84-21.24-17.1-33.59-17.1-33.59 30.5 13.91 75.13 36c25.53 12.62 39.86 34.9 47.45 51.66l223.41 272.35-26.23 18a70 70 0 0 1-101.53-24.91l-121-232.08c-60.79 18.25-122.27 21.7-184.28 14.49Z" fill="url(#am)"/><path d="m2874 1610.18 57.44 160.75s-50.87 39.77-88 26.32l-28.95-92.15s22.14-112.62 59.51-94.92Z" fill="url(#an)"/><path d="M2702.58 1552.44c0 2.48 55.33 156.63 55.33 156.63l87.35-33.46-30.74-153.9s-111.94-10.71-111.94 30.73Z" fill="url(#ao)"/><path d="m2799.2 1559.21 22.52 79.74a11.41 11.41 0 0 1 .44 3.12c0 6.5-1.6 28.88-24.4 25.84-20.68-2.76-39.6-5-51.63.69a11.56 11.56 0 0 0-6 14.38c5 14 17 45.35 31.46 71a11.54 11.54 0 0 0 14.85 4.75c16.41-7.46 50.56-24.17 74.9-44a11.57 11.57 0 0 0 4.09-11.11c-3.83-20.41-15.23-82.45-15.73-100.23-.48-16.69 18.25-29.43 26.5-34.22a11.42 11.42 0 0 0 5.36-7.2c2.58-10.74 4.78-35-26.23-40.41a11.6 11.6 0 0 1-9.41-13.79c2.63-12.85 1.79-31.75-22.61-38.72-24.8-7.07-40.4 7.85-48.34 19.3a11.57 11.57 0 0 1-14.35 3.83c-2.93-1.31-6.46-1.36-10.26 1.84a11.4 11.4 0 0 1-16.68-2.54c-7.23-10.64-20.37-21.26-42.61-14.07-39.46 12.77-37.58 58.27-23.11 83s56.46 8.46 76.34-7.93c15.12-12.46 38.14-5 48.3-.72a11.48 11.48 0 0 1 6.6 7.45Z" fill="url(#ap)"/><path d="M2857.64 1632.47s-23.36-44.19-7.91-58.06 41.61-11.6 40.9 22.95c-.87 42.97-32.99 35.11-32.99 35.11Z" fill="url(#aq)"/><path d="M2997.68 2230a224.66 224.66 0 0 0 22.83-1.07l1.66-.19 68-317a2.32 2.32 0 0 0-4.53-1l-67.3 313.76c-10.12.89-64.16 4.48-92.69-15.73l58.91-275.46-12.29-23.17a2.32 2.32 0 0 0-4.1 2.17l11.51 21.69-59.18 276.7 1.19.88c20.61 15.49 53.81 18.42 75.99 18.42Z" fill="#91b3fa"/><path d="M959.07 3196.64a11.09 11.09 0 0 1-4.68-1c-6-2.83-8.78-10.43-6.2-17l248.49-630.5c2.58-6.56 9.55-9.59 15.57-6.77s8.78 10.43 6.2 17L970 3188.82a11.87 11.87 0 0 1-10.93 7.82Z" fill="url(#ar)"/><path d="M1239 3196.64a11.87 11.87 0 0 1-10.89-7.82l-248.49-630.5c-2.58-6.56.2-14.16 6.21-17s13 .21 15.56 6.77l248.49 630.5c2.59 6.56-.19 14.16-6.2 17a11.09 11.09 0 0 1-4.68 1.05Z" fill="url(#as)"/><path d="M2645.49 3196.64a11 11 0 0 1-4.67-1c-6-2.83-8.79-10.43-6.2-17l248.48-630.5c2.59-6.56 9.55-9.59 15.57-6.77s8.79 10.43 6.2 17l-248.49 630.5a11.85 11.85 0 0 1-10.89 7.77Z" fill="url(#at)"/><path d="M2925.42 3196.64a11.87 11.87 0 0 1-10.89-7.82l-248.48-630.5c-2.59-6.56.19-14.16 6.2-17s13 .21 15.57 6.77l248.48 630.5c2.59 6.56-.19 14.16-6.2 17a11 11 0 0 1-4.68 1.05Z" fill="url(#au)"/><path d="M2609.44 2503.57h359.9v-37.14h-359.9c7.7 0 7.7 37.14 0 37.14Z" fill="#91b3fa"/><path d="M2966 2503.57a3.39 3.39 0 0 0 3.38-3.38v-30.38a3.39 3.39 0 0 0-3.38-3.38h-364.16a3.4 3.4 0 0 1-3.38-3.38v-1.64a3.4 3.4 0 0 1 3.38-3.38H2990a15.54 15.54 0 0 1 15.54 15.54v23.74a14.66 14.66 0 0 1-14.66 14.66h-389a3.4 3.4 0 0 1-3.38-3.38V2507a3.4 3.4 0 0 1 3.38-3.38Z" fill="url(#av)"/><path d="M3021.51 2528.61c1.21-4.15-.44-8.44-4.49-11.69s-10.09-5.15-16.45-5.15H844.08c-8.37 0-16.16 2.83-20.67 7.51s-5.12 10.56-1.61 15.6l23.37 33.55c5.35 7.68 17 12.6 29.71 12.6h2110.89c11.87 0 22.07-5.58 24.32-13.31Z" fill="url(#aw)"/></svg>