<svg width="138" height="100" viewBox="0 0 138 100" fill="none" xmlns="http://www.w3.org/2000/svg">
<rect x="12" width="114" height="100" rx="24" fill="#5AD2FF"/>
<rect x="12" width="114" height="100" rx="24" fill="black" fill-opacity="0.3"/>
<rect x="12" width="114" height="92" rx="24" fill="#5AD2FF"/>
<rect x="12.75" y="0.75" width="112.5" height="98.5" rx="23.25" stroke="#333333" stroke-width="1.5"/>
<path d="M3.7276 32.9104C1.83416 25.3367 7.56246 18 15.3693 18H122.631C130.438 18 136.166 25.3367 134.272 32.9104L130.728 47.0896C130.25 49.0005 130.25 50.9995 130.728 52.9104L134.272 67.0896C136.166 74.6633 130.438 82 122.631 82H15.3693C7.56247 82 1.83417 74.6633 3.72761 67.0896L7.27239 52.9104C7.75011 50.9995 7.75011 49.0005 7.27239 47.0896L3.7276 32.9104Z" fill="white"/>
<path d="M4.45521 32.7285C2.68011 25.6281 8.05039 18.75 15.3693 18.75H122.631C129.95 18.75 135.32 25.6281 133.545 32.7285L130 46.9077L130.728 47.0896L130 46.9077C129.492 48.938 129.492 51.062 130 53.0923L130.728 52.9104L130 53.0923L133.545 67.2715C135.32 74.3719 129.95 81.25 122.631 81.25H15.3693C8.05039 81.25 2.68011 74.3719 4.45521 67.2715L8 53.0923C8.50758 51.062 8.50758 48.938 8 46.9077L4.45521 32.7285Z" stroke="#333333" stroke-width="1.5"/>
<path d="M28.3756 52.144C29.9956 52.144 30.9796 51.304 31.5916 50.344L30.3916 49.732C30.0076 50.404 29.2396 50.896 28.3756 50.896C26.7916 50.896 25.6156 49.684 25.6156 48.004C25.6156 46.324 26.7916 45.112 28.3756 45.112C29.2396 45.112 30.0076 45.616 30.3916 46.276L31.5916 45.664C30.9916 44.704 29.9956 43.864 28.3756 43.864C26.0116 43.864 24.1756 45.544 24.1756 48.004C24.1756 50.464 26.0116 52.144 28.3756 52.144ZM38.2833 52H39.6873V43.996H38.2833V47.272H34.1193V43.996H32.7153V52H34.1193V48.508H38.2833V52ZM41.3872 52H46.8712V50.764H42.7912V48.544H46.7872V47.308H42.7912V45.232H46.8712V43.996H41.3872V52ZM52.1529 52.144C53.7729 52.144 54.7569 51.304 55.3689 50.344L54.1689 49.732C53.7849 50.404 53.0169 50.896 52.1529 50.896C50.5689 50.896 49.3929 49.684 49.3929 48.004C49.3929 46.324 50.5689 45.112 52.1529 45.112C53.0169 45.112 53.7849 45.616 54.1689 46.276L55.3689 45.664C54.7689 44.704 53.7729 43.864 52.1529 43.864C49.7889 43.864 47.9529 45.544 47.9529 48.004C47.9529 50.464 49.7889 52.144 52.1529 52.144ZM61.2806 52H63.0086L59.5166 47.776L62.7686 43.996H61.0286L57.8966 47.812V43.996H56.4926V52H57.8966V49.444L58.5926 48.628L61.2806 52ZM62.9881 48.004C62.9881 50.392 64.6801 52.144 67.0801 52.144C69.4801 52.144 71.1721 50.392 71.1721 48.004C71.1721 45.616 69.4801 43.864 67.0801 43.864C64.6801 43.864 62.9881 45.616 62.9881 48.004ZM69.7321 48.004C69.7321 49.648 68.6881 50.896 67.0801 50.896C65.4601 50.896 64.4281 49.648 64.4281 48.004C64.4281 46.348 65.4601 45.112 67.0801 45.112C68.6881 45.112 69.7321 46.348 69.7321 48.004ZM72.5239 48.844C72.5239 50.812 73.6639 52.144 75.9919 52.144C78.3079 52.144 79.4479 50.824 79.4479 48.832V43.996H78.0319V48.796C78.0319 50.068 77.3239 50.896 75.9919 50.896C74.6479 50.896 73.9399 50.068 73.9399 48.796V43.996H72.5239V48.844ZM83.0569 52H84.4609V45.232H86.8849V43.996H80.6329V45.232H83.0569V52ZM91.1567 52H92.5607V49.012H94.6727C96.3407 49.012 97.2887 47.86 97.2887 46.504C97.2887 45.148 96.3527 43.996 94.6727 43.996H91.1567V52ZM95.8487 46.504C95.8487 47.272 95.2727 47.776 94.4807 47.776H92.5607V45.232H94.4807C95.2727 45.232 95.8487 45.736 95.8487 46.504ZM103.029 52H104.649L102.693 48.856C103.653 48.7 104.589 47.932 104.589 46.504C104.589 45.028 103.557 43.996 101.973 43.996H98.4575V52H99.8615V49.012H101.253L103.029 52ZM103.149 46.504C103.149 47.272 102.573 47.776 101.781 47.776H99.8615V45.232H101.781C102.573 45.232 103.149 45.736 103.149 46.504ZM105.633 48.004C105.633 50.392 107.325 52.144 109.725 52.144C112.125 52.144 113.817 50.392 113.817 48.004C113.817 45.616 112.125 43.864 109.725 43.864C107.325 43.864 105.633 45.616 105.633 48.004ZM112.377 48.004C112.377 49.648 111.333 50.896 109.725 50.896C108.105 50.896 107.073 49.648 107.073 48.004C107.073 46.348 108.105 45.112 109.725 45.112C111.333 45.112 112.377 46.348 112.377 48.004Z" fill="#183C73"/>
<path d="M47.152 36.096C48.096 36.096 48.736 35.648 49.184 35.04L48.616 34.728C48.312 35.184 47.76 35.504 47.152 35.504C45.984 35.504 45.096 34.6 45.096 33.336C45.096 32.064 45.984 31.168 47.152 31.168C47.76 31.168 48.312 31.496 48.616 31.944L49.176 31.632C48.752 31.032 48.096 30.576 47.152 30.576C45.616 30.576 44.408 31.696 44.408 33.336C44.408 34.976 45.616 36.096 47.152 36.096ZM50.0303 36H53.5263V35.408H50.6943V33.568H53.4703V32.976H50.6943V31.256H53.5263V30.664H50.0303V36ZM57.6729 36H58.4569L57.0169 33.824C57.7449 33.76 58.4009 33.232 58.4009 32.272C58.4009 31.288 57.7049 30.664 56.7289 30.664H54.5849V36H55.2489V33.88H56.3129L57.6729 36ZM57.7129 32.272C57.7129 32.872 57.2809 33.296 56.6489 33.296H55.2489V31.256H56.6489C57.2809 31.256 57.7129 31.672 57.7129 32.272ZM60.694 36H61.358V31.256H63.054V30.664H59.006V31.256H60.694V36ZM63.9365 36H64.6005V30.664H63.9365V36ZM65.8506 36H66.5146V33.568H69.2906V32.976H66.5146V31.256H69.3466V30.664H65.8506V36ZM70.249 36H70.913V30.664H70.249V36ZM74.6911 36.096C75.6351 36.096 76.2751 35.648 76.7231 35.04L76.1551 34.728C75.8511 35.184 75.2991 35.504 74.6911 35.504C73.5231 35.504 72.6351 34.6 72.6351 33.336C72.6351 32.064 73.5231 31.168 74.6911 31.168C75.2991 31.168 75.8511 31.496 76.1551 31.944L76.7151 31.632C76.2911 31.032 75.6351 30.576 74.6911 30.576C73.1551 30.576 71.9471 31.696 71.9471 33.336C71.9471 34.976 73.1551 36.096 74.6911 36.096ZM81.3539 36H82.1139L79.9619 30.664H79.1379L76.9939 36H77.7539L78.2259 34.816H80.8819L81.3539 36ZM79.5539 31.352L80.6819 34.224H78.4179L79.5539 31.352ZM82.8115 36H84.6355C86.2915 36 87.3715 34.856 87.3715 33.336C87.3715 31.824 86.2915 30.664 84.6355 30.664H82.8115V36ZM83.4755 35.408V31.256H84.6355C85.9555 31.256 86.6835 32.184 86.6835 33.336C86.6835 34.48 85.9315 35.408 84.6355 35.408H83.4755ZM88.1971 33.336C88.1971 34.912 89.2611 36.096 90.8451 36.096C92.4211 36.096 93.4931 34.912 93.4931 33.336C93.4931 31.76 92.4211 30.576 90.8451 30.576C89.2611 30.576 88.1971 31.76 88.1971 33.336ZM92.8051 33.336C92.8051 34.576 92.0371 35.504 90.8451 35.504C89.6451 35.504 88.8851 34.576 88.8851 33.336C88.8851 32.088 89.6451 31.168 90.8451 31.168C92.0371 31.168 92.8051 32.088 92.8051 33.336Z" fill="black" fill-opacity="0.9"/>
<path d="M49 65L49 73" stroke="#283277" stroke-width="0.5"/>
<path d="M53.83 72H55.96C58.03 72 59.33 70.52 59.33 68.67C59.33 66.84 58.03 65.33 55.96 65.33H53.83V72ZM54.4 71.48V65.85H55.96C57.73 65.85 58.73 67.11 58.73 68.67C58.73 70.23 57.72 71.48 55.96 71.48H54.4ZM60.4538 69.58C60.4538 71.07 61.4638 72.12 62.8738 72.12C63.6738 72.12 64.2838 71.84 64.7638 71.34L64.4938 71C64.0838 71.44 63.5238 71.67 62.9138 71.67C61.7738 71.67 61.0738 70.8 61.0238 69.75H65.0638V69.61C65.0638 68.22 64.2538 67.05 62.7838 67.05C61.4438 67.05 60.4538 68.18 60.4538 69.58ZM62.7738 67.5C63.9838 67.5 64.5238 68.52 64.5338 69.34H61.0238C61.0638 68.5 61.6338 67.5 62.7738 67.5ZM67.7077 72H68.2977L70.3377 67.17H69.7477L68.0077 71.39L66.2477 67.17H65.6677L67.7077 72ZM70.9421 69.58C70.9421 71.07 71.9521 72.12 73.3621 72.12C74.1621 72.12 74.7721 71.84 75.2521 71.34L74.9821 71C74.5721 71.44 74.0121 71.67 73.4021 71.67C72.2621 71.67 71.5621 70.8 71.5121 69.75H75.5521V69.61C75.5521 68.22 74.7421 67.05 73.2721 67.05C71.9321 67.05 70.9421 68.18 70.9421 69.58ZM73.2621 67.5C74.4721 67.5 75.0121 68.52 75.0221 69.34H71.5121C71.5521 68.5 72.1221 67.5 73.2621 67.5ZM76.8959 72H77.4159V65.33H76.8959V72ZM81.0746 72.12C82.5046 72.12 83.4046 70.99 83.4046 69.58C83.4046 68.17 82.5046 67.05 81.0746 67.05C79.6646 67.05 78.7546 68.17 78.7546 69.58C78.7546 70.99 79.6646 72.12 81.0746 72.12ZM81.0746 71.65C79.9546 71.65 79.3146 70.66 79.3146 69.58C79.3146 68.51 79.9546 67.52 81.0746 67.52C82.2146 67.52 82.8446 68.51 82.8446 69.58C82.8446 70.66 82.2146 71.65 81.0746 71.65ZM85.2675 73.84V71.22C85.6575 71.77 86.2675 72.12 86.9475 72.12C88.2375 72.12 89.1075 71.12 89.1075 69.58C89.1075 68.03 88.2375 67.05 86.9475 67.05C86.2275 67.05 85.6075 67.44 85.2675 67.93V67.17H84.7475V73.84H85.2675ZM88.5475 69.58C88.5475 70.75 87.9375 71.65 86.8575 71.65C86.1875 71.65 85.5475 71.23 85.2675 70.77V68.38C85.5475 67.92 86.1875 67.52 86.8575 67.52C87.9375 67.52 88.5475 68.41 88.5475 69.58ZM90.1706 69.58C90.1706 71.07 91.1806 72.12 92.5906 72.12C93.3906 72.12 94.0006 71.84 94.4806 71.34L94.2106 71C93.8006 71.44 93.2406 71.67 92.6306 71.67C91.4906 71.67 90.7906 70.8 90.7406 69.75H94.7806V69.61C94.7806 68.22 93.9706 67.05 92.5006 67.05C91.1606 67.05 90.1706 68.18 90.1706 69.58ZM92.4906 67.5C93.7006 67.5 94.2406 68.52 94.2506 69.34H90.7406C90.7806 68.5 91.3506 67.5 92.4906 67.5ZM96.1245 72H96.6445V68.48C96.8645 68.06 97.5245 67.62 98.0145 67.62C98.1145 67.62 98.1845 67.62 98.2745 67.64V67.07C97.6045 67.07 97.0545 67.46 96.6445 68V67.17H96.1245V72ZM98.8783 71.36C99.3583 71.89 99.9583 72.12 100.738 72.12C101.948 72.12 102.548 71.48 102.548 70.7C102.548 69.67 101.618 69.44 100.788 69.23C100.118 69.06 99.4983 68.92 99.4983 68.37C99.4983 67.87 99.9583 67.49 100.708 67.49C101.348 67.49 101.868 67.75 102.148 68.13L102.438 67.76C102.088 67.37 101.538 67.05 100.708 67.05C99.6183 67.05 98.9883 67.65 98.9883 68.39C98.9883 69.33 99.8783 69.54 100.688 69.74C101.378 69.92 102.038 70.09 102.038 70.7C102.038 71.26 101.558 71.68 100.748 71.68C100.068 71.68 99.4983 71.36 99.1883 70.97L98.8783 71.36Z" fill="#283277"/>
<path d="M39.0015 65.1503C35.7498 65.1503 33.114 66.7745 33.114 68.7783C33.114 70.7821 35.7498 72.5637 39.0015 72.5637C42.2533 72.5637 44.8889 70.782 44.8889 68.7783C44.8889 66.7747 42.2531 65.1503 39.0015 65.1503Z" fill="#00BCFF"/>
<path d="M37.0857 67.6568C37.0828 67.6623 37.0253 67.7197 37.0626 67.7658C37.1536 67.8778 37.4348 67.942 37.7192 67.8805C37.8885 67.844 38.1055 67.6776 38.3158 67.5169C38.5165 67.3413 38.7468 67.1999 38.9967 67.0987C39.1564 67.0424 39.3308 67.038 39.4934 67.0862C39.6584 67.1453 39.8115 67.2314 39.9461 67.3407C40.3408 67.6266 41.9279 68.9611 42.2022 69.1917C43.0449 68.8541 43.9174 68.5901 44.8091 68.4028C44.6932 67.7178 44.2655 67.0648 43.6093 66.5517C42.6947 66.9217 41.5025 67.1433 40.4096 66.6293C40.0383 66.4673 39.6368 66.3794 39.2293 66.3707C38.3623 66.3902 37.9867 66.7516 37.5892 67.1342L37.0857 67.6568Z" fill="white"/>
<path d="M42.1377 69.3369C42.119 69.3208 40.2715 67.7636 39.8529 67.4605C39.707 67.3356 39.5272 67.2533 39.3345 67.2234C39.2515 67.2171 39.168 67.2248 39.0878 67.2463C38.8407 67.3359 38.612 67.4672 38.4125 67.6339C38.1786 67.8135 37.9579 67.9826 37.753 68.0268C37.5054 68.0758 37.2478 68.0385 37.0261 67.9216C36.9741 67.891 36.9323 67.8468 36.9054 67.7943C36.8906 67.754 36.8886 67.7103 36.8996 67.6689C36.9106 67.6275 36.9341 67.5902 36.9672 67.5617L37.4771 67.0305C37.5364 66.9736 37.596 66.9165 37.6573 66.8604C37.5 66.8832 37.3447 66.9169 37.1925 66.9612C37.0172 67.0173 36.8348 67.0501 36.6503 67.0586C36.4644 67.0405 36.2797 67.0127 36.0969 66.9753C35.5519 66.8521 35.0198 66.6806 34.5076 66.463C33.7827 66.9828 33.3107 67.621 33.1707 68.3368C33.2748 68.3633 33.5477 68.4233 33.6182 68.4383C35.2587 68.7896 35.7695 69.1515 35.8622 69.2271C35.9167 69.168 35.9844 69.1216 36.0602 69.0913C36.1361 69.0611 36.218 69.0478 36.3 69.0524C36.3819 69.0571 36.4617 69.0796 36.5333 69.1182C36.6049 69.1568 36.6665 69.2106 36.7134 69.2754C36.824 69.1893 36.9621 69.1425 37.1044 69.1429C37.1843 69.1437 37.2635 69.157 37.339 69.1825C37.4121 69.205 37.4793 69.2423 37.5363 69.2919C37.5932 69.3414 37.6385 69.4021 37.6692 69.4699C37.7408 69.4386 37.8187 69.4227 37.8974 69.4232C37.9915 69.4243 38.0844 69.444 38.1703 69.4811C38.2897 69.5351 38.3866 69.6264 38.4451 69.7403C38.5036 69.8542 38.5202 69.9838 38.4923 70.108C38.514 70.1057 38.5358 70.1046 38.5576 70.1047C38.73 70.1049 38.8953 70.171 39.0172 70.2885C39.1391 70.406 39.2076 70.5652 39.2078 70.7313C39.2078 70.8346 39.1811 70.9362 39.13 71.0271C39.2998 71.127 39.4959 71.1776 39.6948 71.1728C39.7444 71.1728 39.7935 71.1629 39.8389 71.1438C39.8844 71.1247 39.9253 71.0968 39.959 71.0618C39.9754 71.0396 39.9924 71.0136 39.9766 70.9949L39.5137 70.4997C39.5137 70.4997 39.4376 70.4303 39.4627 70.4035C39.4887 70.376 39.5358 70.4155 39.5692 70.4423C39.8047 70.6318 40.0922 70.9178 40.0922 70.9178C40.0973 70.9209 40.1162 70.9571 40.2225 70.9755C40.2861 70.9862 40.3513 70.9844 40.4141 70.9703C40.4769 70.9561 40.5362 70.93 40.5883 70.8933C40.6178 70.8695 40.6448 70.8429 40.6689 70.814C40.6672 70.8155 40.6654 70.8169 40.6635 70.818C40.6959 70.7748 40.7122 70.7223 40.7098 70.669C40.7074 70.6158 40.6864 70.5648 40.6502 70.5245L40.1099 69.94C40.1099 69.94 40.0326 69.8711 40.0591 69.8436C40.0825 69.8195 40.1322 69.8558 40.1661 69.8829C40.3371 70.0207 40.5788 70.2542 40.8105 70.473C40.8877 70.5233 40.9795 70.5488 41.0727 70.5457C41.1659 70.5425 41.2556 70.511 41.3291 70.4557C41.3892 70.4237 41.439 70.3763 41.4728 70.3187C41.5067 70.2611 41.5233 70.1956 41.5208 70.1295C41.5092 70.0468 41.469 69.9703 41.4067 69.9122L40.6689 69.1973C40.6689 69.1973 40.5907 69.1332 40.6184 69.1008C40.641 69.0735 40.6913 69.1128 40.7247 69.1395C40.9597 69.3291 41.5961 69.8913 41.5961 69.8913C41.6711 69.9379 41.7588 69.9619 41.8481 69.9602C41.9373 69.9585 42.024 69.9311 42.097 69.8817C42.1439 69.8553 42.1833 69.8182 42.212 69.7738C42.2407 69.7293 42.2576 69.6788 42.2614 69.6266C42.2636 69.5726 42.2537 69.5187 42.2323 69.4688C42.211 69.4188 42.1787 69.3738 42.1377 69.3369Z" fill="white"/>
<path d="M38.5577 70.243C38.471 70.2547 38.3854 70.273 38.3017 70.2976C38.2926 70.292 38.3087 70.2476 38.3193 70.2221C38.3305 70.1968 38.4812 69.7599 38.1137 69.6083C38.0315 69.5658 37.9372 69.55 37.8449 69.5632C37.7526 69.5765 37.6673 69.6181 37.6015 69.6818C37.5861 69.6973 37.5791 69.696 37.5774 69.6765C37.5752 69.5949 37.5466 69.516 37.4955 69.4509C37.4444 69.3858 37.3734 69.3378 37.2925 69.3135C37.178 69.2796 37.0551 69.2822 36.9422 69.3209C36.8293 69.3597 36.7325 69.4325 36.6661 69.5286C36.6542 69.4425 36.6126 69.3627 36.5479 69.3022C36.4832 69.2416 36.3991 69.2039 36.3094 69.195C36.2197 69.1861 36.1294 69.2067 36.0533 69.2533C35.9772 69.2999 35.9196 69.3699 35.8899 69.4519C35.8601 69.534 35.86 69.6233 35.8894 69.7054C35.9189 69.7876 35.9762 69.8577 36.0522 69.9046C36.1281 69.9515 36.2183 69.9723 36.308 69.9637C36.3978 69.9552 36.482 69.9177 36.5469 69.8574C36.5492 69.8594 36.5501 69.863 36.5489 69.8704C36.5218 69.9901 36.5402 70.1152 36.601 70.2229C36.6617 70.3305 36.7606 70.4135 36.8797 70.4567C36.944 70.4805 37.0137 70.4878 37.0818 70.4777C37.1499 70.4675 37.2141 70.4404 37.2679 70.3989C37.2998 70.3773 37.305 70.3864 37.3005 70.4154C37.2869 70.505 37.3042 70.6968 37.5835 70.8058C37.6527 70.8384 37.731 70.8488 37.8068 70.8352C37.8825 70.8216 37.9517 70.7849 38.0041 70.7305C38.0401 70.6991 38.0499 70.7042 38.0517 70.7529C38.0562 70.8484 38.0897 70.9404 38.148 71.0177C38.2064 71.095 38.287 71.154 38.3798 71.1876C38.4727 71.2211 38.5737 71.2277 38.6704 71.2064C38.7671 71.1851 38.8552 71.1369 38.9237 71.0679C38.9922 70.9988 39.0382 70.9119 39.0559 70.8179C39.0736 70.7239 39.0623 70.627 39.0233 70.5391C38.9843 70.4513 38.9194 70.3764 38.8367 70.3237C38.7539 70.2711 38.6569 70.243 38.5577 70.243H38.5577Z" fill="white"/>
<path d="M39.0004 65C35.6868 65 33.0007 66.6977 33.0007 68.7801C33.0007 68.834 33 68.9826 33 69.0014C33 71.2108 35.3478 73 38.9997 73C42.6736 73 45 71.2112 45 69.0018V68.7801C44.9999 66.6977 42.3138 65 39.0004 65ZM44.7295 68.3612C43.865 68.5455 43.0209 68.8098 42.2092 69.1504C41.6399 68.672 40.3247 67.5703 39.9686 67.3129C39.8305 67.201 39.6734 67.1129 39.5042 67.0525C39.4304 67.0301 39.3536 67.0186 39.2763 67.0182C39.1778 67.0195 39.0802 67.0353 38.9868 67.0652C38.7366 67.1653 38.5061 67.3058 38.3052 67.4809L38.2938 67.4896C38.0871 67.6479 37.8735 67.8116 37.7119 67.8463C37.6412 67.8616 37.5689 67.8694 37.4964 67.8695C37.4237 67.8753 37.3505 67.8673 37.281 67.8457C37.2115 67.8242 37.1471 67.7896 37.0916 67.744C37.0815 67.7316 37.0882 67.7116 37.1116 67.6828L37.1146 67.6789L37.6155 67.1592C38.0076 66.7814 38.3781 66.4247 39.2307 66.4059C39.2448 66.4055 39.2592 66.4052 39.2732 66.4052C39.6604 66.4204 40.041 66.5073 40.3941 66.661C40.8687 66.8894 41.3912 67.0102 41.9217 67.0138C42.502 67.0042 43.0731 66.8726 43.5951 66.6284C44.2034 67.1211 44.6068 67.7146 44.7295 68.3612ZM39.0015 65.2232C40.7603 65.2232 42.3341 65.7088 43.3922 66.4736C42.9305 66.6768 42.4303 66.786 41.9229 66.7945C41.4264 66.7906 40.9375 66.6772 40.4936 66.4631C40.1097 66.2943 39.6952 66.2 39.2736 66.1854C39.2575 66.1854 39.2413 66.1857 39.2255 66.186C38.7176 66.1789 38.2239 66.3477 37.8345 66.6617C37.5986 66.6736 37.3654 66.7146 37.1404 66.7838C36.9822 66.8346 36.8178 66.8649 36.6514 66.874C36.5886 66.874 36.4758 66.8685 36.4657 66.8681C35.8673 66.7666 35.2804 66.6101 34.713 66.4008C35.769 65.678 37.2988 65.2232 39.0015 65.2232ZM34.5054 66.5517C35.2372 66.84 36.125 67.0627 36.4057 67.0802C36.484 67.0852 36.5674 67.0937 36.6509 67.0939C36.8387 67.0851 37.0244 67.0519 37.2029 66.9951C37.3092 66.9664 37.4264 66.9351 37.5497 66.9124C37.5167 66.9434 37.4839 66.975 37.4509 67.0069L36.9422 67.5369C36.9035 67.5699 36.8762 67.6135 36.8637 67.6618C36.8513 67.7101 36.8544 67.761 36.8726 67.8076C36.9021 67.8665 36.9485 67.9161 37.0063 67.9505C37.1708 68.0401 37.3573 68.0857 37.5462 68.0825C37.6186 68.083 37.6909 68.0757 37.7616 68.0608C37.9749 68.0148 38.1987 67.843 38.4355 67.6616C38.6317 67.4984 38.8559 67.3692 39.098 67.2798C39.1582 67.2643 39.2203 67.2561 39.2826 67.2554C39.2986 67.2552 39.3145 67.2562 39.3304 67.2581C39.5167 67.2876 39.6904 67.3674 39.8314 67.4884C40.2491 67.7907 42.0967 69.3478 42.1149 69.3631C42.1516 69.3966 42.1805 69.4373 42.1996 69.4824C42.2187 69.5275 42.2277 69.576 42.2258 69.6247C42.2225 69.6713 42.2072 69.7165 42.1815 69.7562C42.1557 69.7958 42.1202 69.8288 42.0781 69.8521C42.0063 69.8983 41.9221 69.9236 41.8357 69.9248C41.7599 69.9249 41.6856 69.9042 41.6215 69.8651C41.6147 69.8597 40.9817 69.3005 40.7486 69.1126C40.7194 69.0829 40.681 69.0631 40.6392 69.0563C40.6299 69.0561 40.6207 69.058 40.6123 69.0618C40.6039 69.0656 40.5965 69.0713 40.5907 69.0783C40.5541 69.1218 40.5952 69.1821 40.6436 69.2216L41.3831 69.938C41.4382 69.9897 41.4742 70.0575 41.4854 70.1309C41.4873 70.191 41.4719 70.2503 41.4409 70.3025C41.4099 70.3546 41.3645 70.3974 41.3098 70.4262C41.2329 70.4784 41.1417 70.5075 41.0476 70.5097C40.9725 70.5097 40.8991 70.4882 40.8366 70.448L40.7306 70.3474C40.5366 70.1636 40.3364 69.9735 40.1899 69.8558C40.1603 69.8265 40.1216 69.8071 40.0797 69.8007C40.071 69.8005 40.0623 69.8022 40.0543 69.8055C40.0462 69.8088 40.039 69.8137 40.0331 69.8199C40.0164 69.8378 40.0047 69.8699 40.0466 69.9232C40.0579 69.9376 40.0704 69.951 40.0839 69.9633L40.6234 70.5472C40.6546 70.5812 40.6728 70.6244 40.675 70.6697C40.6772 70.715 40.6634 70.7597 40.6357 70.7964L40.6165 70.8196C40.6007 70.8361 40.584 70.8517 40.5663 70.8663C40.4899 70.9203 40.3972 70.9485 40.3025 70.9468C40.2781 70.9469 40.2537 70.9449 40.2296 70.9408C40.1903 70.9378 40.153 70.9227 40.1233 70.8977L40.1165 70.8911C40.0872 70.8617 39.8152 70.5942 39.5902 70.4132C39.5623 70.3846 39.5254 70.3657 39.4852 70.3592C39.476 70.3591 39.4669 70.3609 39.4584 70.3645C39.45 70.3681 39.4425 70.3734 39.4364 70.3801C39.392 70.4271 39.4589 70.4972 39.4872 70.523L39.9472 71.0121C39.9433 71.0229 39.9375 71.033 39.93 71.0419C39.9135 71.0639 39.8577 71.1177 39.6908 71.1378C39.6705 71.1403 39.6501 71.1415 39.6297 71.1414C39.4713 71.1316 39.3173 71.0876 39.179 71.0126C39.2283 70.9119 39.2503 70.8007 39.2431 70.6896C39.2359 70.5784 39.1997 70.4708 39.1378 70.3767C39.0759 70.2826 38.9903 70.2051 38.889 70.1514C38.7877 70.0977 38.6739 70.0695 38.5583 70.0695C38.5502 70.0695 38.5416 70.0697 38.5335 70.07C38.5532 69.9441 38.5299 69.8154 38.4671 69.7034C38.4043 69.5914 38.3053 69.5021 38.1852 69.4489C38.0949 69.4099 37.9972 69.3892 37.8982 69.388C37.8263 69.3877 37.7549 69.4001 37.6877 69.4247C37.6178 69.2939 37.4969 69.1951 37.3516 69.1498C37.2724 69.1228 37.1891 69.1087 37.1051 69.108C36.9674 69.1073 36.833 69.1488 36.7213 69.2265C36.6706 69.1651 36.6069 69.1147 36.5346 69.0786C36.4622 69.0425 36.3827 69.0216 36.3014 69.0172C36.22 69.0128 36.1386 69.025 36.0625 69.053C35.9863 69.081 35.9172 69.1242 35.8596 69.1797C35.7163 69.0742 35.148 68.7264 33.6267 68.3938C33.5541 68.3779 33.3891 68.3324 33.2853 68.3031C33.428 67.6453 33.8619 67.0446 34.5054 66.5517H34.5054ZM37.3272 70.3662L37.3107 70.3521H37.2941C37.277 70.3533 37.2607 70.3596 37.2476 70.3702C37.1822 70.4186 37.1026 70.4459 37.0202 70.4481C36.9767 70.4478 36.9337 70.4397 36.8933 70.4244C36.7817 70.3842 36.6889 70.3064 36.6324 70.2054C36.5758 70.1044 36.5592 69.987 36.5857 69.8751C36.5875 69.867 36.587 69.8585 36.5843 69.8506C36.5816 69.8427 36.5768 69.8356 36.5703 69.8301L36.5454 69.8105L36.5221 69.8319C36.4543 69.8953 36.3635 69.9308 36.2691 69.9307C36.1986 69.931 36.1295 69.9117 36.0701 69.875C36.0108 69.8384 35.9637 69.7861 35.9344 69.7243C35.9052 69.6625 35.8951 69.5939 35.9054 69.5268C35.9156 69.4596 35.9458 69.3967 35.9923 69.3456C36.0387 69.2946 36.0995 69.2575 36.1673 69.2389C36.2351 69.2203 36.307 69.221 36.3744 69.2408C36.4418 69.2606 36.5018 69.2988 36.5473 69.3506C36.5928 69.4025 36.6217 69.4659 36.6307 69.5333L36.6433 69.628L36.6973 69.5478C36.7581 69.4568 36.8486 69.3878 36.9544 69.3515C37.0603 69.3153 37.1756 69.3138 37.2825 69.3473C37.3563 69.3696 37.4209 69.4136 37.4674 69.4732C37.5139 69.5327 37.5398 69.6048 37.5416 69.6793C37.5455 69.7252 37.5795 69.7275 37.5861 69.7275C37.5943 69.7269 37.6023 69.7248 37.6096 69.7211C37.6169 69.7174 37.6233 69.7123 37.6284 69.7061C37.6632 69.6711 37.7051 69.6434 37.7514 69.6245C37.7978 69.6057 37.8476 69.5961 37.8979 69.5965C37.9676 69.598 38.0363 69.6129 38.0999 69.6404C38.4446 69.7829 38.2883 70.2049 38.2865 70.2092C38.2567 70.2791 38.2556 70.31 38.2834 70.3278L38.297 70.334H38.3071C38.3301 70.3315 38.3526 70.3258 38.3739 70.3171C38.4326 70.2948 38.4947 70.2816 38.5577 70.278H38.5579C38.6197 70.278 38.6808 70.2898 38.7378 70.3126C38.7949 70.3353 38.8467 70.3687 38.8904 70.4108C38.934 70.4529 38.9686 70.5028 38.9923 70.5578C39.0159 70.6127 39.028 70.6716 39.028 70.7311C39.028 70.7906 39.0158 70.8495 38.9922 70.9044C38.9685 70.9594 38.9339 71.0093 38.8902 71.0514C38.8465 71.0934 38.7947 71.1268 38.7376 71.1495C38.6806 71.1722 38.6194 71.1839 38.5577 71.1839C38.4365 71.1846 38.3199 71.1399 38.2323 71.0593C38.1448 70.9787 38.0932 70.8684 38.0885 70.7518C38.0878 70.7311 38.0856 70.676 38.037 70.676C38.015 70.6784 37.9946 70.6887 37.9801 70.7049C37.9201 70.7664 37.8371 70.8025 37.7495 70.8051C37.6972 70.8041 37.6456 70.7933 37.5976 70.7734C37.3298 70.6687 37.3261 70.4916 37.337 70.4204C37.3396 70.4112 37.3401 70.4016 37.3384 70.3922C37.3367 70.3829 37.3329 70.374 37.3272 70.3662ZM39.0014 72.3333C35.8153 72.3333 33.2325 70.7416 33.2325 68.7783C33.2329 68.6998 33.2376 68.6214 33.2464 68.5433C33.2718 68.5492 33.5248 68.6075 33.5772 68.6188C35.1312 68.9514 35.6447 69.2971 35.7315 69.3624C35.6946 69.4477 35.6801 69.5404 35.6893 69.6323C35.6986 69.7242 35.7312 69.8125 35.7844 69.8893C35.8375 69.9662 35.9096 70.0292 35.9941 70.0728C36.0786 70.1163 36.173 70.1391 36.2688 70.1391C36.3047 70.1392 36.3404 70.136 36.3756 70.1296C36.3986 70.2408 36.4511 70.3443 36.5282 70.43C36.6052 70.5157 36.704 70.5806 36.8149 70.6184C36.881 70.6434 36.9513 70.6565 37.0223 70.657C37.067 70.6572 37.1116 70.6519 37.1549 70.6412C37.2082 70.7494 37.2916 70.8413 37.3957 70.9068C37.4998 70.9722 37.6207 71.0088 37.745 71.0123C37.8057 71.0123 37.8658 71.0019 37.9227 70.9817C37.9658 71.0833 38.0345 71.1729 38.1226 71.2425C38.2107 71.312 38.3154 71.3594 38.4273 71.3802C38.5391 71.4009 38.6546 71.3946 38.7632 71.3616C38.8719 71.3286 38.9703 71.27 39.0495 71.1911C39.2268 71.2906 39.4261 71.3479 39.6309 71.3584C39.6603 71.3583 39.6897 71.3565 39.7189 71.353C39.7945 71.3508 39.8688 71.3331 39.9367 71.301C40.0047 71.269 40.0648 71.2234 40.113 71.1672C40.1221 71.1552 40.1303 71.1425 40.1374 71.1292C40.1977 71.1469 40.2604 71.1564 40.3235 71.1572C40.46 71.1546 40.5919 71.1092 40.6991 71.0279C40.8124 70.9563 40.8919 70.8447 40.9208 70.7172C40.921 70.7158 40.9212 70.7144 40.9213 70.713C40.9627 70.7211 41.0048 70.7252 41.047 70.7252C41.1849 70.7235 41.3192 70.6825 41.4329 70.6073C41.5194 70.559 41.5908 70.4891 41.6395 70.405C41.6882 70.321 41.7125 70.2258 41.7098 70.1295C41.7517 70.1379 41.7944 70.1422 41.8372 70.1423C41.9659 70.1409 42.0915 70.1037 42.1986 70.0351C42.2699 69.9932 42.3298 69.9356 42.3735 69.8671C42.4172 69.7987 42.4435 69.7212 42.4502 69.641C42.4588 69.5295 42.4308 69.4182 42.3704 69.3227C43.1455 69.018 43.9459 68.7765 44.763 68.6009C44.7677 68.6597 44.7703 68.7189 44.7703 68.7784C44.7703 70.7416 42.1876 72.3333 39.0015 72.3333L39.0014 72.3333Z" fill="#0A0080"/>
</svg>
